<svg data-name="구성 요소 515 – 280" xmlns="http://www.w3.org/2000/svg" width="23.898" height="23" viewBox="0 0 23.898 23">
    <path data-name="빼기 53" d="M17.1 21.347a1.25 1.25 0 1 1 1.25-1.25 1.252 1.252 0 0 1-1.25 1.25zm-12 0a1.25 1.25 0 1 1 1.25-1.25 1.252 1.252 0 0 1-1.25 1.25zm11.25-4H4.6a.751.751 0 0 1-.75-.75V4.907L.707 1.768 1.768.707l3.139 3.14h15.346a.749.749 0 0 1 .718.965l-2.4 8a.747.747 0 0 1-.719.535H5.347v2.5h11v1.5zm-11-12v6.5h11.944l1.95-6.5z" transform="translate(-.707 1.653)" style="fill:#fff"/>
    <circle data-name="타원 10" cx="5" cy="5" r="5" transform="translate(13.898)" style="fill:none"/>
</svg>
