<svg height="248.631" viewBox="0 0 270.72 248.631" width="270.72" xmlns="http://www.w3.org/2000/svg"><path d="m185.268 179.965h7.778v53.964h-7.778z" fill="#1a1a1a"/><path d="m185.268 179.965h7.778v53.964h-7.778z" fill="none" stroke="#1a1a1a" stroke-miterlimit="10" stroke-width=".641"/><path d="m68.163 179.965h7.778v53.964h-7.778z" fill="#1a1a1a"/><path d="m68.163 179.965h7.778v53.964h-7.778z" fill="none" stroke="#1a1a1a" stroke-miterlimit="10" stroke-width=".641"/><path d="m158.4 91.648h-79.251a20.81 20.81 0 0 0 -20.811 20.811v71.931h120.87v-71.931a20.81 20.81 0 0 0 -20.808-20.811" fill="#fff" transform="translate(11.83 -4.426)"/><path d="m158.4 91.648h-79.251a20.81 20.81 0 0 0 -20.811 20.811v71.931h120.87v-71.931a20.81 20.81 0 0 0 -20.808-20.811z" fill="none" stroke="#1a1a1a" stroke-miterlimit="10" transform="translate(11.83 -4.426)"/><path d="m63.2 118.553h-3.846a15.642 15.642 0 0 0 -15.642 15.642v44.971h35.127v-44.971a15.642 15.642 0 0 0 -15.639-15.642" fill="#fff" transform="translate(8.893 .976)"/><path d="m63.2 118.553h-3.846a15.642 15.642 0 0 0 -15.642 15.642v44.971h35.127v-44.971a15.642 15.642 0 0 0 -15.639-15.642z" fill="none" stroke="#1a1a1a" stroke-miterlimit="10" transform="translate(8.893 .976)"/><path d="m163.854 118.553h-3.844a15.642 15.642 0 0 0 -15.642 15.642v44.971h35.132v-44.971a15.642 15.642 0 0 0 -15.642-15.642" fill="#fff" transform="translate(29.105 .976)"/><path d="m163.854 118.553h-3.844a15.642 15.642 0 0 0 -15.642 15.642v44.971h35.132v-44.971a15.642 15.642 0 0 0 -15.646-15.642z" fill="none" stroke="#1a1a1a" stroke-miterlimit="10" transform="translate(29.105 .976)"/><path d="m.5 153.294h69.668v7.778h-69.668z" fill="#fff"/><path d="m.5 153.294h69.668v7.778h-69.668z" fill="none" stroke="#1a1a1a" stroke-linecap="round" stroke-linejoin="round"/><path d="m125 201.741-5.939 7.318a5.844 5.844 0 0 0 -1.3 3.781 75.41 75.41 0 0 0 .482 8.38c.49 2.937.49 6.853-3.916 6.118s-6.852-3.446-7.832-9.31a65.7 65.7 0 0 0 -3.345-11.172 4.529 4.529 0 0 1 1.614-5.318l3.662-2.589 4.815-5.692z" fill="#fff" transform="translate(20.767 21.203)"/><path d="m125 201.741-5.939 7.318a5.844 5.844 0 0 0 -1.3 3.781 75.41 75.41 0 0 0 .482 8.38c.49 2.937.49 6.853-3.916 6.118s-6.852-3.446-7.832-9.31a65.7 65.7 0 0 0 -3.345-11.172 4.529 4.529 0 0 1 1.614-5.318l3.662-2.589 4.815-5.692z" fill="none" stroke="#1a1a1a" stroke-miterlimit="10" transform="translate(20.767 15.976)"/><path d="m165.682 190.484-.443 9.414a5.834 5.834 0 0 0 1.191 3.817 75.478 75.478 0 0 0 5.358 6.464c2.135 2.074 4.456 5.227.474 7.248s-7.563 1.287-11.827-2.853a65.707 65.707 0 0 0 -9.319-7.013 4.533 4.533 0 0 1 -1.854-5.24l1.415-4.256.5-7.439z" fill="#fff" transform="translate(30.039 15.419)"/><path d="m165.682 190.484-.443 9.414a5.834 5.834 0 0 0 1.191 3.817 75.478 75.478 0 0 0 5.358 6.464c2.135 2.074 4.456 5.227.474 7.248s-7.563 1.287-11.827-2.853a65.707 65.707 0 0 0 -9.319-7.013 4.533 4.533 0 0 1 -1.854-5.24l1.415-4.256.5-7.439z" fill="none" stroke="#1a1a1a" stroke-miterlimit="10" transform="translate(30.039 15.419)"/><path d="m87.732 158.907h85.743v21.235h-85.743z" fill="#fff"/><path d="m87.732 158.907h85.743v21.235h-85.743z" fill="none" stroke="#1a1a1a" stroke-miterlimit="10"/><path d="m102.617 72.014s-3.343 5.39-8.843 6.9-11.332.672-15.166 7.005-13.673 4.722-15.17 7.693l11.337 11.139 31.817-23.9 3.568-10.027z" fill="#1a1a1a" transform="translate(12.854 -8.608)"/><path d="m102.617 72.014s-3.343 5.39-8.843 6.9-11.332.672-15.166 7.005-13.673 4.722-15.17 7.693l11.337 11.139 31.817-23.9 3.568-10.027z" fill="none" stroke="#1a1a1a" stroke-miterlimit="10" stroke-width=".641" transform="translate(12.854 -8.608)"/><path d="m109.274 123.641s5.827 5.533 11.361 6.527c17.711 3.182 53.431 5.79 56.043 17.668 3.38 15.363-1.712 58.732-1.712 58.732l-22.5 1.33 3.668-53.112-52.082-8.255z" fill="#2f2d2c" transform="translate(21.01 1.998)"/><path d="m109.274 123.641s5.827 5.533 11.361 6.527c17.711 3.182 53.431 5.79 56.043 17.668 3.38 15.363-1.712 58.732-1.712 58.732l-22.5 1.33 3.668-53.112-52.082-8.255z" fill="none" stroke="#1a1a1a" stroke-miterlimit="10" transform="translate(21.01 1.998)"/><path d="m118.828 134.76 7.057 1.9s30.8 5.709 42.674 15.539-39.972 65.722-39.972 65.722l-20.8-14.578 28.96-37.114s-30.074-2.59-48.1-9.349a15.655 15.655 0 0 1 -7.83-5.867h-.01c-6.153-9.186.672-23.217.672-23.217l32.971-4.151" fill="#2f2d2c" transform="translate(15.826 1.998)"/><path d="m118.828 134.76 7.057 1.9s30.8 5.709 42.674 15.539-39.972 65.722-39.972 65.722l-20.8-14.578 28.96-37.114s-30.074-2.59-48.1-9.349a15.655 15.655 0 0 1 -7.83-5.867h-.01c-6.153-9.186.672-23.217.672-23.217l32.971-4.151" fill="none" stroke="#000" stroke-miterlimit="10" transform="translate(15.826 1.998)"/><path d="m135.405 81.089-8.611 20.52a1.023 1.023 0 0 0 .943 1.418h10.163l8.724-22.027a.81.81 0 0 0 -.753-1.107h-8.671a1.945 1.945 0 0 0 -1.794 1.192" fill="#1a1a1a" transform="translate(25.56 -6.786)"/><path d="m135.405 81.089-8.611 20.52a1.023 1.023 0 0 0 .943 1.418h10.163l8.724-22.027a.81.81 0 0 0 -.753-1.107h-8.671a1.945 1.945 0 0 0 -1.795 1.196z" fill="none" stroke="#1a1a1a" stroke-miterlimit="10" stroke-width=".641" transform="translate(25.56 -6.786)"/><path d="m129.148 106.021-1.328-3.187 3.6-6.944s-.108-4.63.807-6.38a.61.61 0 0 1 1.153.234l.536 3.876s.68.364.861-1.268-.144-6.978 1.633-6.712c1.353.2 1.179 7.256 1.179 7.256s.795-9.146 2.631-9.071c1.224.05 0 8.346 0 8.346s3.231-8.671 4.354-7.337-2.268 8.516-2.268 8.516l-1.341 5.38a6.513 6.513 0 0 1 -.937 2.092l-4.731 6.947z" fill="#fff" transform="translate(25.782 -5.997)"/><path d="m129.148 106.021-1.328-3.187 3.6-6.944s-.108-4.63.807-6.38a.61.61 0 0 1 1.153.234l.536 3.876s.68.364.861-1.268-.144-6.978 1.633-6.712c1.353.2 1.179 7.256 1.179 7.256s.795-9.146 2.631-9.071c1.224.05 0 8.346 0 8.346s3.231-8.671 4.354-7.337-2.268 8.516-2.268 8.516l-1.341 5.38a6.513 6.513 0 0 1 -.937 2.092l-4.731 6.947z" fill="none" stroke="#1a1a1a" stroke-linecap="round" stroke-linejoin="round" transform="translate(25.782 -5.997)"/><path d="m151.175 104.767-13-2.412-6.028 14.787-7.477-14.934s-6.3-9.06-12.752-11.52c-5.778-2.209-15.9-9.242-25.793-3.391a17.517 17.517 0 0 0 -4.706 4.185l-.419.518a26.2 26.2 0 0 0 -1.652 2.3c-3.817 5.91-19.985 31.445-18.179 37.091 2.049 6.4 11.263 5.793 16.182 3.539.514-.234 1.336-.623 2.4-1.13-.419 2.4-.464 4.192.059 4.97 2.768 4.156 38.1-7.379 38.1-7.379l.844-7.474 2.651 5.486c1.843 3.383 13.831 25.1 24.605-7.719zm-65.107 8.049-.881.4 1.565-2.29c-.228.6-.455 1.24-.683 1.886" fill="#fff" transform="translate(12.371 -5.757)"/><path d="m151.175 104.767-13-2.412-6.028 14.787-7.477-14.934s-6.3-9.06-12.752-11.52c-5.778-2.209-15.9-9.242-25.793-3.391a17.517 17.517 0 0 0 -4.706 4.185l-.419.518a26.2 26.2 0 0 0 -1.652 2.3c-3.817 5.91-19.985 31.445-18.179 37.091 2.049 6.4 11.263 5.793 16.182 3.539.514-.234 1.336-.623 2.4-1.13-.419 2.4-.464 4.192.059 4.97 2.768 4.156 38.1-7.379 38.1-7.379l.844-7.474 2.651 5.486c1.843 3.383 13.831 25.1 24.605-7.719zm-65.107 8.049-.881.4 1.565-2.29c-.229.605-.452 1.244-.684 1.89z" fill="none" stroke="#1a1a1a" stroke-linejoin="round" stroke-miterlimit="10" transform="translate(12.371 -5.757)"/><path d="m98.677 101.334s21.353-7.824 20.848-5.748-6.373 4.747-6.373 4.747 2.847 1.946 1.915 3.659a3.7 3.7 0 0 1 .848 3.308 2.255 2.255 0 0 1 .5 2.914c-1.013 1.687-8.682 2.318-8.682 2.318l-2.145.724z" fill="#fff" transform="translate(19.93 -3.706)"/><g fill="none"><path d="m98.677 101.334s21.353-7.824 20.848-5.748-6.373 4.747-6.373 4.747 2.847 1.946 1.915 3.659a3.7 3.7 0 0 1 .848 3.308 2.255 2.255 0 0 1 .5 2.914c-1.013 1.687-8.682 2.318-8.682 2.318l-2.145.724z" stroke="#1a1a1a" stroke-linecap="round" stroke-linejoin="round" stroke-miterlimit="10" transform="translate(19.93 -3.706)"/><path d="m145.536 75.281a7.284 7.284 0 0 0 -10.446.14" stroke="#1a1a1a" stroke-miterlimit="10" transform="translate(27.241 -10.543)"/><path d="m142.573 77.212a3.708 3.708 0 0 0 -5.322.074" stroke="#1a1a1a" stroke-miterlimit="10" transform="translate(27.674 -9.945)"/><path d="m148.38 73.427a10.714 10.714 0 0 0 -15.362.207" stroke="#1a1a1a" stroke-miterlimit="10" transform="translate(26.824 -11.118)"/></g><path d="m118.608 97.627-25.177 12.299" fill="#73c1c6"/><path d="m118.608 97.627-25.177 12.299" fill="none" stroke="#1a1a1a" stroke-miterlimit="10" stroke-width=".641"/><path d="m110.016 110.242s-21.393 14.217-33.394 18.495" fill="none" stroke="#1a1a1a" stroke-miterlimit="10" transform="translate(15.501 -.693)"/><path d="m96.066 73s3.1-9.574 13.127-6.473z" fill="#1a1a1a" transform="translate(19.405 -9.595)"/><path d="m96.066 73s3.1-9.574 13.127-6.473z" fill="none" stroke="#1a1a1a" stroke-miterlimit="10" stroke-width=".641" transform="translate(19.405 -9.595)"/><path d="m114.6 79.282-1.824 3.843a8.321 8.321 0 0 1 -5.335 4.462l-3.479 7.492a6.857 6.857 0 1 1 -12.432-5.785l6.2-13.312.915-1.924.808-1.706a8.478 8.478 0 0 1 10.831-4.326 8.325 8.325 0 0 1 4.316 11.256" fill="#fff" transform="translate(18.365 -9.295)"/><path d="m114.6 79.282-1.824 3.843a8.321 8.321 0 0 1 -5.335 4.462l-3.479 7.492a6.857 6.857 0 1 1 -12.432-5.785l6.2-13.312.915-1.924.808-1.706a8.478 8.478 0 0 1 10.831-4.326 8.325 8.325 0 0 1 4.316 11.256z" fill="none" stroke="#1a1a1a" stroke-miterlimit="10" transform="translate(18.365 -9.295)"/><path d="m108.745 68.062a5.329 5.329 0 0 1 4.209 1.709c1.652 1.937 1.8 9.3-2.8 8.588s-1.411-10.3-1.411-10.3" fill="#1a1a1a" transform="translate(21.735 -9.164)"/><path d="m108.745 68.062a5.329 5.329 0 0 1 4.209 1.709c1.652 1.937 1.8 9.3-2.8 8.588s-1.409-10.297-1.409-10.297z" fill="none" stroke="#1a1a1a" stroke-miterlimit="10" stroke-width=".641" transform="translate(21.735 -9.164)"/><path d="m113.229 77.295-1.829 3.844a8.333 8.333 0 0 1 -13.678 2.04" fill="none" stroke="#1a1a1a" stroke-miterlimit="10" transform="translate(19.738 -7.308)"/><path d="m99.409 73.064s6.123 4.344 9.133.737 4.51-1.473 4.51-1.473.957-3.311-4.324-5.819c0 0-6.191-3-10.345 5.483z" fill="#1a1a1a" transform="translate(19.87 -9.577)"/><path d="m99.409 73.064s6.123 4.344 9.133.737 4.51-1.473 4.51-1.473.957-3.311-4.324-5.819c0 0-6.191-3-10.345 5.483z" fill="none" stroke="#1a1a1a" stroke-miterlimit="10" stroke-width=".641" transform="translate(19.87 -9.577)"/><path d="m97.9 75a2.066 2.066 0 0 1 -.809-.2 2.089 2.089 0 1 1 2.983-1.8" fill="#fff" transform="translate(19.371 -8.608)"/><path d="m97.9 75a2.066 2.066 0 0 1 -.809-.2 2.089 2.089 0 1 1 2.983-1.8" fill="none" stroke="#1a1a1a" stroke-miterlimit="10" stroke-width=".641" transform="translate(19.371 -8.608)"/><path d="m144.604 111.275-3.27 8.254" fill="#73c1c6"/><path d="m144.604 111.275-3.27 8.254" fill="none" stroke="#1a1a1a" stroke-miterlimit="10"/><path d="m130.279 125.635 2.263 1.903" fill="#f2f2f2"/><path d="m130.279 125.635 2.263 1.903" fill="none" stroke="#1a1a1a" stroke-miterlimit="10" stroke-width=".641"/><path d="m36.053 222.1v-68.951h-5.614v68.951h-16.707a3.906 3.906 0 0 0 -3.906 3.906h46.839a3.906 3.906 0 0 0 -3.906-3.906z" fill="#1a1a1a" transform="translate(2.088 7.923)"/><path d="m36.053 222.1v-68.951h-5.614v68.951h-16.707a3.906 3.906 0 0 0 -3.906 3.906h46.839a3.906 3.906 0 0 0 -3.906-3.906z" fill="none" stroke="#1a1a1a" stroke-miterlimit="10" stroke-width=".641" transform="translate(2.088 7.923)"/><ellipse cx="18.692" cy="145.866" fill="none" rx="4.393" ry="4.392" stroke="#1a1a1a" stroke-miterlimit="10"/><path d="m18.694 138.574h10.93v14.719h-10.93z" fill="#fff"/><path d="m18.694 138.574h10.93v14.719h-10.93z" fill="none" stroke="#1a1a1a" stroke-miterlimit="10"/><path d="m197.853.321a33.919 33.919 0 0 0 -30.023 49.705l-11.93 13.281 15.891-7.357a33.92 33.92 0 1 0 26.062-55.629" fill="#fff" transform="translate(38.446 .179)"/><path d="m197.853.321a33.919 33.919 0 0 0 -30.023 49.705l-11.93 13.281 15.891-7.357a33.92 33.92 0 1 0 26.062-55.629z" fill="none" stroke="#1a1a1a" stroke-linejoin="round" stroke-miterlimit="10" transform="translate(38.446 .179)"/><path d="m216.733 31.469-.87 6.2-1.014 7.161-.87 6.2h-21.76l-.871-6.2-1.013-7.161-.871-6.2z" fill="#fff" transform="translate(33.717 -4.21)"/><path d="m216.733 31.469-.87 6.2-1.014 7.161-.87 6.2h-21.76l-.871-6.2-1.013-7.161-.871-6.2z" fill="none" stroke="#1a1a1a" stroke-miterlimit="10" transform="translate(33.717 -4.21)"/><path d="m216.005 38.683-1.014 7.161h-23.5l-1.014-7.161z" fill="#fff" transform="translate(33.573 -5.227)"/><path d="m216.005 38.683-1.014 7.161h-23.5l-1.014-7.161z" fill="none" stroke="#1a1a1a" stroke-miterlimit="10" transform="translate(33.573 -5.227)"/><path d="m228.415 27.259 3.167-5.234" fill="#73c1c6"/><path d="m228.415 27.259 3.167-5.234" fill="none" stroke="#1a1a1a" stroke-miterlimit="10"/><path d="m244.39 27.259-3.168-5.234" fill="#73c1c6"/><path d="m244.39 27.259-3.168-5.234" fill="none" stroke="#1a1a1a" stroke-miterlimit="10"/><path d="m306.439 109.133.244 3.35-1.236-.136z" transform="translate(-179.538 -39.119)"/><path d="m301.856 108.58c-.081.5.141.957.494 1.013s.7-.307.784-.811-.141-.958-.494-1.013-.7.307-.784.811" transform="translate(-173.527 -38.647)"/><path d="m308.982 107.828c-.081.505.141.959.494 1.014s.7-.306.781-.81-.141-.96-.493-1.014-.7.306-.784.81" transform="translate(-185.897 -38.671)"/><path d="m310.375 116.109a2.633 2.633 0 0 1 -3.13-1.059" fill="none" stroke="#000" stroke-linecap="round" stroke-linejoin="round" stroke-width=".8" transform="translate(-184.804 -41.299)"/><path d="m310.485 104.777a1.687 1.687 0 0 0 -2.38.4" fill="none" stroke="#000" stroke-linecap="round" stroke-linejoin="round" stroke-width=".8" transform="translate(-185.573 -37.274)"/><path d="m302.511 106.014a1.443 1.443 0 0 0 -1.671-.33" fill="none" stroke="#000" stroke-linecap="round" stroke-linejoin="round" stroke-width=".8" transform="translate(-172.053 -37.536)"/></svg>