<svg height="230.256" viewBox="0 0 310.806 230.256" width="310.806" xmlns="http://www.w3.org/2000/svg" xmlns:xlink="http://www.w3.org/1999/xlink"><clipPath id="a"><path d="m0 0h4.216v6.355h-4.216z"/></clipPath><path d="m20470.914-5211.05c-1.377-.114-2.633-.227-3.525-.211-1.824.026-14.129.515-14.387-2.247-.154-1.613 6.488-4.349 7.529-4.709 3.025-1.052 5.371-2.24 7.932-3.353l31-116.431 31.7 6.415-49.756 113.611c-.262 2.531-1.02 5.655-1.895 6.26a8.569 8.569 0 0 1 -4.516.874c-1.336 0-2.767-.105-4.082-.209z" fill="#fff" stroke="#000" stroke-miterlimit="10" transform="translate(-20290.158 5440.595)"/><path d="m20457.291-5291.019c-6.625-11.08-3.6-46.738-3.6-46.738l22.957-.242-.639 27.992 22.52-6.852c2.227-1.114 7.734-3.14 8.814-2.179 2.209 1.982 2.574 10.292 3.295 13.113.453 1.771 3.83 13.618 1.205 14.519-1.529.525-5.752-5.288-6.348-6.214-1.687-2.616-3.346-4.576-4.984-6.724l-25.578 16.542a16.012 16.012 0 0 1 -8.26 2.7c-3.153.002-6.642-1.338-9.382-5.917z" fill="#fff" stroke="#000" stroke-miterlimit="10" transform="translate(-20227.127 5467.304)"/><path d="m284.762 74.888-12.43 35.379 29.168 10.518 11.712-46.853" fill="#2f2d2c" stroke="#000" transform="translate(-77.478 30.299)"/><path d="m289.711 74.616 6.215 45.419 29.162-6.217c-.478-7.171 1.674-25.576-5.5-40.4" fill="#2f2d2c" stroke="#000" transform="translate(-70.474 30.093)"/><path d="m0 0h108.345v194.852h-108.345z" fill="#fff" transform="translate(.5 34.905)"/><path d="m.5 34.905h108.345v194.852h-108.345z" fill="none" stroke="#1a1a1a" stroke-miterlimit="10"/><path d="m122.6 123.98h-4.445a4.319 4.319 0 0 1 -4.319-4.319v-33.173a4.319 4.319 0 0 1 4.319-4.319h4.445a4.319 4.319 0 0 1 4.319 4.319v33.173a4.319 4.319 0 0 1 -4.319 4.319" fill="#fff" transform="translate(-103.668 25.336)"/><rect fill="none" height="41.811" rx="4.869" stroke="#1a1a1a" stroke-miterlimit="10" width="13.082" x="10.168" y="107.506"/><path d="m137.1 116.129h-16.687a1.232 1.232 0 0 0 0 2.465h16.687a1.232 1.232 0 0 0 0-2.465" fill="#fff" transform="translate(-104.271 21.5)"/><path d="m137.1 116.129h-16.687a1.232 1.232 0 0 0 0 2.465h16.687a1.232 1.232 0 0 0 0-2.465z" fill="none" stroke="#1a1a1a" stroke-miterlimit="10" transform="translate(-104.271 21.5)"/><path d="m316.413 11.3a6.08 6.08 0 1 1 -6.08-6.081 6.08 6.08 0 0 1 6.08 6.081" fill="#fff" transform="translate(-64.613 2.611)"/><path d="m311.635 16.083a6.08 6.08 0 0 0 -12.159 0h27.9l-.469-1.56a6.079 6.079 0 1 0 -12.158 0" fill="#fff" transform="translate(-66.539 3.909)"/><path d="m197.196 51.887h12.496" fill="none" stroke="#ffd7e6" stroke-miterlimit="10" stroke-width="1.022"/><path d="m197.196 56.477h12.496" fill="none" stroke="#ffd7e6" stroke-miterlimit="10" stroke-width="1.022"/><path d="m296.877 22.4c13.766 5.6 26.762-16.012 39.544-2.088 13.1 14.267 1.258 36.01-15.776 39.394-11.346 2.253-23.8-.609-28.549-11.967" fill="#0c0c0c" transform="translate(-69.513 6.772)"/><path d="m20478.742-5266.852s1.754-21.007 1.6-25.535c-.117-3.362-.209-6.942-.059-10.534-7.609-6.238-24.635-20.422-26.467-23.9-2.537-4.807 1.191-10.382 6.3-11.083a7.633 7.633 0 0 1 3.59.258 149.983 149.983 0 0 1 24.049 13.013 39.645 39.645 0 0 1 3.377 2.432 29.973 29.973 0 0 1 7.836-.658 82.669 82.669 0 0 1 11.176 1.319 37.143 37.143 0 0 1 4.162-3.093 150.159 150.159 0 0 1 24.045-13.013 7.633 7.633 0 0 1 3.59-.258c5.111.7 8.84 6.277 6.309 11.083-1.658 3.147-15.773 15.073-24.076 21.931 1.684 12.236-.465 26.345 3.879 36.855-4.086 1.1-18.748 1.34-31.031 1.34-9.91499999999.003-18.28-.157-18.28-.157z" fill="#fff" stroke="#000" stroke-miterlimit="10" transform="translate(-20275.002 5376.933)"/><path d="m20474.424-5292.55c-4.672-6.653-9.76-14.891-13.887-21.9l.082-.1c-2.717-3.875-5.842-9.075-6.633-12.513-.771-1.44-1.271-2.789-.809-3.3s1.627.5 2.861 1.919c-1.338-2.042-2.928-4.836-2.213-5.629.551-.607 2.08.931 3.541 2.727-1.486-2.29-3.186-5.32-2.393-6.19.607-.674 2.258.947 3.869 2.907-.715-1.425-1.117-2.7-.648-3.211 1.1-1.209 5.594 5.063 7.121 7.281.557.664 1.029 1.384 1.3 1.775-.6-1.06-.387-4.436 1.389-4.369 1.014.036 1.121 1.534 1.2 2.305a13.573 13.573 0 0 1 -.369 4.543 3.261 3.261 0 0 0 .01 1.984l.021-.023c6.684 6.946 33.371 27.965 24.152 38.436-2.576 2.927-4.869 4.083-6.945 4.083-4.71599999999-.003-8.32499999999-5.988-11.64899999999-10.725z" fill="#fff" stroke="#000" stroke-miterlimit="10" transform="translate(-20298.65 5338.507)"/><path d="m345.676 27.745a150.056 150.056 0 0 0 -24.047 13.013 36.747 36.747 0 0 0 -4.158 3.092 82.557 82.557 0 0 0 -11.177-1.32 29.937 29.937 0 0 0 -7.841.661 39.249 39.249 0 0 0 -3.378-2.433 150.06 150.06 0 0 0 -24.047-13.013 7.669 7.669 0 0 0 -3.589-.261c-5.111.706-8.837 6.28-6.3 11.088 1.832 3.477 18.866 17.665 26.47 23.9-.152 3.593-.06 7.172.055 10.535.156 4.527-1.6 25.533-1.6 25.533s41.926.8 49.309-1.183c-4.342-10.507-2.2-24.615-3.881-36.852 8.3-6.858 22.421-18.782 24.079-21.93 2.532-4.808-1.193-10.382-6.3-11.088a10.185 10.185 0 0 0 -1.362-.094 6.238 6.238 0 0 0 -2.227.355" fill="none" transform="translate(-82.318 11.543)"/><path d="m290.348 35.191a57.565 57.565 0 0 1 1.752 8.669s1.846 2.762 10.11-.356c0 0-.913-4.582-1.564-9.883" fill="#fff" transform="translate(-70.217 14.054)"/><g clip-path="url(#a)" transform="translate(220.145 48.504)"><path d="m290.358 34.5a4.639 4.639 0 0 0 4.215-.288l-2.863 6.355z" fill="#fff" transform="translate(-290.358 -34.212)"/></g><path d="m296.549 39.592c-1.7.427-4.212.992-5.648.046-3.467-2.288-2.469-8.568-2.424-10.513.038-1.57.181-3.714 1.235-4.993.863-1.042 2.372-.979 3.594-1.164a13.048 13.048 0 0 1 4.631-.132 11.385 11.385 0 0 1 4.631 2.3 60.464 60.464 0 0 0 -1.006 13.122c0 .006-4.346 1.155-4.69 1.249l-.323.086" fill="#fff" transform="translate(-71.039 9.643)"/><path d="m306.636 33.357a13 13 0 0 0 -.283-7.7c-1.988-4.1-7.192-5.883-11.481-5.42-3.624.39-8.745 1.108-7.916 6.229.166 1.021 2.179 2.208 2.074 3.183a6.7 6.7 0 0 1 2.774-4.766c-.105 5.463 9.7 4.362 10.327 8.223.059.359.318 5.014-.3 4.944 1.787.215 4.38-3.172 4.8-4.694" fill="#0c0c0c" transform="translate(-71.621 8.632)"/><path d="m296.678 28.7s1.2-2.316 2.934-1.122 1.166 4.191-3.074 4.689" fill="#fff" transform="translate(-67.722 11.483)"/><path d="m230.894 40.483-1.013.943" fill="none" stroke="#0c0c0c" stroke-linecap="round" stroke-miterlimit="10" stroke-width=".511"/><path d="m289.917 39.94s-1.434 4.661 5.379 5.379a9.9 9.9 0 0 0 9.68-4.3" fill="none" stroke="#0c0c0c" stroke-linecap="round" stroke-miterlimit="10" transform="translate(-70.441 16.601)"/><path d="m249.954 71.243-8.606 5.379" fill="none" stroke="#0c0c0c" stroke-linecap="round" stroke-miterlimit="10"/><path d="m205.492 75.829v-7.171" fill="none" stroke="#0c0c0c" stroke-linecap="round" stroke-miterlimit="10"/><path d="m345.6 19.375c5.86-1.968 7.742-10.876 7.889-16.493" fill="none" stroke="#2b2626" stroke-miterlimit="10" stroke-width=".511" transform="translate(-47.953 1.667)"/><path d="m350.2 17.934c3.624-1.4 6.125-7.573 6.454-11.474" fill="none" stroke="#2b2626" stroke-miterlimit="10" stroke-width=".511" transform="translate(-46.099 3.11)"/><path d="m241.474 7.482a13.157 13.157 0 0 0 5.737 15.06" fill="none" stroke="#2b2626" stroke-miterlimit="10" stroke-width=".511" transform="translate(-96.125 -2.24)"/><path d="m20454.99-5287.346c-9.223-10.472 16.238-30.054 22.92-37l.025.031a3.269 3.269 0 0 0 .01-2 13.632 13.632 0 0 1 -.365-4.547c.078-.766.186-2.263 1.205-2.3 1.773-.067 1.984 3.307 1.389 4.367.271-.39.736-1.1 1.285-1.761 1.523-2.208 6.035-8.51 7.129-7.3.471.52.064 1.8-.654 3.232 1.615-1.97 3.273-3.606 3.879-2.934.789.874-.889 3.882-2.371 6.169 1.457-1.787 2.971-3.3 3.518-2.7.719.794-.883 3.6-2.223 5.644 1.236-1.42 2.406-2.447 2.871-1.93s-.031 1.85-.8 3.286c-.787 3.44-3.918 8.649-6.637 12.53l.078.093c-4.125 7.011-9.219 15.25-13.889 21.9-3.2 4.559-6.111 9.633-10.213 9.633-2.034.014-4.36-1.234-7.157-4.413z" fill="#fff" stroke="#000" stroke-miterlimit="10" transform="translate(-20196.787 5339.224)"/><path d="m237.377 12.082a60.035 60.035 0 0 0 1.434 7.171" fill="none" stroke="#2b2626" stroke-miterlimit="10" stroke-width=".511" transform="translate(-97.564 -.386)"/><g stroke="#000"><path d="m42.221 185.635h24.407v44.12h-24.407z" fill="#fff"/><path d="m66.627 185.635h34.146v44.12h-34.146z" fill="#fff"/><path d="m51.086 185.635h6.182v11.908h-6.182z" fill="#fff"/><path d="m59.856 159.536h14.433v26.09h-14.433z" fill="#fff"/><path d="m74.289 159.536h20.192v26.09h-20.192z" fill="#fff"/><path d="m64.69 159.536h4.478v6.915h-4.478z" fill="#fff"/><path d="m89.424 207.696h19.754v22.061h-19.754z" fill="#fff"/><path d="m109.176 207.696h27.637v22.061h-27.637z" fill="#fff"/><path d="m96.037 207.696h6.129v9.464h-6.129z" fill="#fff"/><path d="m-20197.707 8301.312s-1 7.836.871 9.927 3.189 2.122 6.975 1.8" fill="none" stroke-linecap="round" transform="translate(20415.178 -8263.566)"/><path d="m-20195.047 8312.62 1.135 5.4" fill="none" transform="translate(20415.178 -8263.566)"/><path d="m3.508.018a6.838 6.838 0 0 1 -3.162.34.291.291 0 0 0 -.346.342c.706 3.726 3.46 1.357 3.8-.313.045-.242-.065-.451-.292-.369z" fill="none" stroke-miterlimit="10" stroke-width=".8" transform="matrix(.985 -.174 .174 .985 220.184 45.209)"/></g><path d="m209.647 28.516a.418.418 0 0 1 .58.1 1.378 1.378 0 0 1 .1 1.262.421.421 0 0 1 -.554.2.4.4 0 0 1 -.194-.2 1.123 1.123 0 0 1 .069-1.361" transform="translate(9.66 11.402)"/><path d="m209.647 28.516a.418.418 0 0 1 .58.1 1.378 1.378 0 0 1 .1 1.262.421.421 0 0 1 -.554.2.4.4 0 0 1 -.194-.2 1.123 1.123 0 0 1 .069-1.361" transform="translate(13.799 11.18)"/><path d="m213.439 34.313 1.137.161-.132-3.1z" transform="translate(7.231 9.612)"/><path d="m220.162 23.426a1.893 1.893 0 0 1 .864.077.954.954 0 0 1 .468.306" stroke="#000" stroke-linecap="round" stroke-linejoin="round" stroke-width=".8" transform="translate(3.26 15.345)"/><path d="m208.677 24.429a1.286 1.286 0 0 1 1.108-.222" stroke="#000" stroke-linecap="round" stroke-linejoin="round" stroke-width=".8" transform="translate(10.065 14.807)"/><path d="m-20257.906 8273.5c.1.095 1.857 2.836 1.857 2.836" fill="none" stroke="#000" stroke-linecap="round" transform="translate(20415.178 -8263.566)"/><path d="m-20256.488 8270.629 1.941 3.039" fill="none" stroke="#000" stroke-linecap="round" transform="translate(20415.178 -8263.566)"/><path d="m-20122.408 8271.294-2.4 3.666" fill="none" stroke="#000" stroke-linecap="round" transform="translate(20415.178 -8263.566)"/><path d="m-20121.094 8274.29c-.068.073-.961 1.2-.961 1.2" fill="none" stroke="#000" stroke-linecap="round" transform="translate(20415.178 -8263.566)"/></svg>