<svg height="170.125" viewBox="0 0 286.634 170.125" width="286.634" xmlns="http://www.w3.org/2000/svg"><path d="m148.267 91.867c-6.425 10.092-9.9 21.719-14.156 32.9-2.875 7.563-6.259 15.144-10.961 21.663a21.942 21.942 0 0 0 -17.008 5.733 38.366 38.366 0 0 0 7.16 1.493 15.905 15.905 0 0 0 3.587-.047c-.485.454-.977.9-1.485 1.335 3.6 1.372 7.766.56 11.066-1.435 2.784-1.683 4.811-4.353 6.677-7.019a145.224 145.224 0 0 0 21.089-45.036c-2.099-3.037-3.871-6.548-5.969-9.587z" fill="#fff" stroke="#000" stroke-miterlimit="10" transform="translate(27.358 -33.374)"/><path d="m253.919 53.374c-3.379-5.717-9.193-9.267-12.774-14.843-5.842-9.1-4.593-21.618-10.719-30.5-3.404-4.931-8.918-8.051-14.194-8.031-4.113.015-10.9.165-13.116 5.429a17.856 17.856 0 0 1 .364-2.886c.165-.786-1.041-1.123-1.208-.333a19.163 19.163 0 0 0 -.362 5.554 7.011 7.011 0 0 0 -2.845-.115c-.793.126-.457 1.333.333 1.207a5.463 5.463 0 0 1 2.273.12 10.013 10.013 0 0 0 -4.56 7.079c-.445 3.469.53 7.133 1.689 10.592s2.528 6.914 2.923 10.492c.719 6.509-1.846 12.439-4.221 18.06s-4.669 11.801-3.394 18.275c1.469 7.454 7.566 13.511 14.095 16.093s13.419 2.254 19.937 1.213c5.694-.909 11.334-2.359 16.28-5.269a25.174 25.174 0 0 0 11.227-13.248 23.141 23.141 0 0 0 -1.728-18.889" fill="#2f2d2c" transform="translate(-11.394)"/><path d="m243.718 101.524-6.824-21.268a3.51 3.51 0 0 0 -.472-1.472l-.108-.336-.061.054c-.012-.018-.02-.035-.032-.054-3.062-4.586-17.4-11.321-19.18-11.81-.288-.081-.473-.12-.529-.136a.076.076 0 0 0 -.028-.008 15.9 15.9 0 0 0 -2.829-.617c-.1-.016-.2-.032-.3-.04-5.065-.529-9.518.353-14.621.217a28.971 28.971 0 0 0 -4.091.168.6.6 0 0 0 -.12.016h-.01a.358.358 0 0 0 -.065.008h-.019c-.436.129-.872.249-1.3.377-.287.1-.622.225-.983.369-4.685 1.949-15.187 8.476-20.364 29.163-.222.907-.445 1.844-.649 2.807-.046.216-.083.441-.139.665-1.651 8.082-1.818 19.95-1.373 32.379.01 0-.638 10.359-.628 10.367 4.249.995 11.057-.241 15.834.055 6.383.385 31.236.57 36.811-.384-.742-9.474 18.44-36.6 21.518-38.82a1.517 1.517 0 0 0 .558-1.7" fill="#fff" transform="translate(-3.851 -20.014)"/><path d="m243.7 101.524-6.82-21.268a3.51 3.51 0 0 0 -.472-1.472l-.108-.336-.061.054c-.012-.018-.02-.035-.032-.054-3.062-4.586-17.4-11.321-19.18-11.81-.288-.081-.473-.12-.529-.136a.076.076 0 0 0 -.028-.008 15.9 15.9 0 0 0 -2.829-.617c-.1-.016-.2-.032-.3-.04-5.065-.529-9.518.353-14.621.217a28.971 28.971 0 0 0 -4.091.168.6.6 0 0 0 -.12.016h-.01a.358.358 0 0 0 -.065.008h-.019c-.436.129-.872.249-1.3.377-.287.1-.622.225-.983.369-4.685 1.949-15.187 8.476-20.364 29.163-.222.907-.445 1.844-.649 2.807-.046.216-.083.441-.139.665-1.651 8.082-2.178 29.1-1.733 41.529l51.766 4.778v-35.269c8.583 1.689 19.051-5.228 22.129-7.443a1.517 1.517 0 0 0 .558-1.698z" fill="none" stroke="#000" stroke-miterlimit="10" transform="translate(-3.838 -20.014)"/><path d="m235.436 222.515-4.5-45.455-31.457-.979s-6.428 34.784-2.861 46.434" fill="#2f2d2c" transform="translate(-13.14 -53.669)"/><path d="m241.142 188.185c-5.906 4.277-.883 5.355-.051 10.051.577 3.241-4.87 4.6.7 9.7.584 1.613.022 2.367-1 3.281v14.453" fill="none" stroke="#000" stroke-miterlimit="10" transform="translate(-27.246 -57.358)"/><path d="m173.452 223.314-2.852-47.25 30.66-1.555-8.471 47.932" fill="#2f2d2c" transform="translate(-4.34 -53.189)"/><path d="m230.1 53.468-2.191.34c.225 2.525.483 4.992.635 6.492-2.5 2.4-6.173 1.361-9.393 1.555-2.536.146-4.207 2.14-6.422.825 1-2.131.272-3.042 1.212-7.215a5.493 5.493 0 0 0 .7-.523s.522-1.622 1.131-4.18a72.963 72.963 0 0 0 1.668-9.8c.18-1.055.341-2.072.475-3.007.011-.085.023-.163.029-.25.355-2.492.586-4.939.7-7.313a28.605 28.605 0 0 1 6.23-4.44q.525-.288 1.054-.556a26.88 26.88 0 0 0 2.712 7.528c-.065.384-.126.764-.181 1.15-.133.888-.252 1.767-.367 2.657-.047.363-.086.722-.122 1.09 0 .033 0 .068-.007.1-.035.247-.06.5-.086.753-.09.9-.162 1.792-.221 2.69a26.9 26.9 0 0 0 2.44 12.1" fill="#fff" transform="translate(-17.179 -7.742)"/><path d="m208.98 41.865c2.941 2.315 8.5 1.311 11.663-.69s4.785-4.5 6.059-8.029c.068-.207.145-.417.21-.632-.08-.436-.145-.877-.186-1.326-.115-1.193-.1-2.413-.111-3.615a13.5 13.5 0 0 0 -1.011-5.865 9.973 9.973 0 0 0 -5.515-4.608 80.869 80.869 0 0 0 -11.621-1.945.521.521 0 0 0 -.57.5l-.149 4.687v.008a18.476 18.476 0 0 1 -.062 2.023c-.288 3.447-1.292 6.817-1.454 10.274s.035 7.065 2.744 9.215" fill="#fff" transform="translate(-15.187 -4.618)"/><path d="m235.044 30.687a2.094 2.094 0 0 1 .8-1.928 1.852 1.852 0 0 1 1.979.479 4.554 4.554 0 0 1 -3.073 7.993c-.01-2.131.278-4.413.291-6.544" fill="#fff" transform="translate(-23.892 -8.724)"/><path d="m217.688 39.741a15.46 15.46 0 0 1 -6.712.674.6.6 0 0 0 -.724.674c1.489 7.405 7.334 2.7 8.047-.617.101-.478-.13-.893-.611-.731z" fill="none" stroke="#000" stroke-miterlimit="10" transform="translate(-16.422 -12.102)"/><path d="m221.367 27.3a.694.694 0 0 1 .963.164 2.289 2.289 0 0 1 .164 2.094.7.7 0 0 1 -.919.33.664.664 0 0 1 -.321-.329 1.864 1.864 0 0 1 .114-2.258" transform="translate(-20.435 -8.651)"/><path d="m209.812 28.565a.679.679 0 0 1 .943.161 2.242 2.242 0 0 1 .162 2.052.685.685 0 0 1 -.9.323.647.647 0 0 1 -.315-.322 1.827 1.827 0 0 1 .112-2.214" transform="translate(-15.908 -9.01)"/><path d="m231.408 67.434-.98.452c-1.988 1.564-12.188 9.366-17.328 9.366a4.036 4.036 0 0 1 -3.625-1.86 4.823 4.823 0 0 1 -.657-2.847 16.073 16.073 0 0 1 1.539-5.436c.072-.152.136-.3.209-.465a15.269 15.269 0 0 1 1.764-.281h.016a.264.264 0 0 1 .056-.008h.008a.452.452 0 0 1 .1-.016 21.663 21.663 0 0 1 3.536-.168c4.41.136 7.819-.412 12.2.117.08.008 0 .722.272.292a7.958 7.958 0 0 1 1.963.569l.6.286c.048.015.079-.081.327-.001z" fill="none" stroke="#000" stroke-linecap="round" stroke-linejoin="round" transform="translate(-15.986 -20.132)"/><path d="m220.458 71.309a83.21 83.21 0 0 0 8.047-5.333c.929-.69 1.495-1.135 1.495-1.135a7.564 7.564 0 0 0 -1.367-1.224c-5.433-3.717-14.158 1.473-14.158 1.473a33.907 33.907 0 0 0 -1.449 3.315c-2.655 7.243 2.23 5.84 7.432 2.9" fill="#fff" transform="translate(-17.043 -18.982)"/><path d="m213.439 35.468 1.584.225-.184-4.322z" transform="translate(-17.396 -9.562)"/><g stroke="#000"><path d="m220.162 23.457a2.511 2.511 0 0 1 1.593.2 1.862 1.862 0 0 1 .863.806" fill="none" stroke-linecap="round" stroke-linejoin="round" stroke-width="1.23" transform="translate(-19.445 -7.134)"/><path d="m208.677 24.855a2.042 2.042 0 0 1 2.175-.583" fill="none" stroke-linecap="round" stroke-linejoin="round" stroke-width="1.23" transform="translate(-15.945 -7.366)"/><path d="m257.542 45.884s1.183 6 11.514 16.022 10.265 8.951 7.053 20.882-1.533 7.692-5.8 11.475" fill="none" stroke-miterlimit="10" transform="translate(-30.838 -13.985)"/><path d="m213.388 23.305-1.372 1.114" fill="none" stroke-linecap="round" stroke-linejoin="round" stroke-width="1.2"/><path d="m238.992 54.56a28.224 28.224 0 0 1 -2.992-1.051c-.216-1.881-1.824-8.172-1.954-12.624l.091-1.238c.4-1.655.845-3.028 1.365-4.841 2.446-.437 3.9-1.735 4.088-3.962a3.32 3.32 0 0 0 -2.215-3.731 1.934 1.934 0 0 0 -2.335.957c0-.014-1.35-4.256-1.35-4.256" fill="none" stroke-linecap="round" stroke-linejoin="round" stroke-width="1.462" transform="translate(-23.568 -7.258)"/><path d="m220.595 54.275a7.863 7.863 0 0 0 3.644-.967 6.14 6.14 0 0 0 .6-.371c.1-.072.2-.149.306-.241" fill="none" stroke-linecap="round" stroke-linejoin="round" stroke-width=".902" transform="translate(-19.578 -16.062)"/></g><path d="m238.058 39.589a1.166 1.166 0 0 1 -2.331 0c0-.644.522-1.666 1.166-1.666s1.165 1.023 1.165 1.666" fill="#fff" transform="translate(-24.191 -11.559)"/><path d="m207.93 15.88s-.192 8.393-.462 9.346a29.3 29.3 0 0 0 -1.089 10.2c.272 8.422 4.968 7.982 6.7 7.982.222.158 1.117-.161 1.422.013-.294 1.217-1.039 6.358-1.571 7.492a4.981 4.981 0 0 1 -1.514.17" fill="none" stroke="#000" stroke-linecap="round" stroke-linejoin="round" transform="translate(-15.22 -4.84)"/><path d="m143.628 65.509s1.725-7.731-3.425-13.056c-3.018-3.121-9.92-5.412-9.92-5.412s-12.6 11.15-11.235 14.741 12.918 14.288 12.918 14.288z" fill="#e58d68" transform="translate(-19.486 9.749)"/><path d="m147.1 58.314a2.6 2.6 0 0 0 .957-2.672c-1.48-6.257-2.918-14-2.66-15.6a2.6 2.6 0 1 0 -5.14-.825c-.538 3.353 1.957 14.341 2.735 17.627a2.6 2.6 0 0 0 4.108 1.474" fill="#e58d68" transform="translate(-25.223 12.456)"/><path d="m135.219 55.613a2.6 2.6 0 0 0 1.416-3.911c-.058-.088-5.759-8.836-8.107-13.263l-2.428-4.584a2.6 2.6 0 1 0 -4.6 2.439l2.432 4.584c2.458 4.635 8.107 13.3 8.345 13.669a2.6 2.6 0 0 0 2.944 1.066" fill="#e58d68" transform="translate(-20.094 13.687)"/><path d="m128.156 56.754a2.6 2.6 0 0 0 1.321-4.044c-3.8-5.1-10.211-14.13-11.2-16.621a2.6 2.6 0 0 0 -4.835 1.927c1.572 3.943 10.817 16.4 11.866 17.806a2.6 2.6 0 0 0 2.852.933" fill="#e58d68" transform="translate(-17.949 13.151)"/><path d="m122.368 59.707a2.6 2.6 0 0 0 1.158-4.239c-.081-.088-8.094-8.91-10.419-12.662a2.6 2.6 0 1 0 -4.425 2.74c2.576 4.158 10.651 13.048 10.994 13.425a2.6 2.6 0 0 0 2.692.736" fill="#e58d68" transform="translate(-16.607 11.226)"/><path d="m119.518 65.078a2.6 2.6 0 0 0 .872-4.507c-.08-.065-7.94-6.446-10.6-9.095a2.6 2.6 0 0 0 -3.676 3.686c2.844 2.836 10.661 9.182 10.993 9.451a2.6 2.6 0 0 0 2.407.466" fill="#e58d68" transform="translate(-15.814 8.755)"/><path d="m140.3 69.968a.208.208 0 0 0 .024-.021.217.217 0 0 0 0-.307 8.938 8.938 0 0 1 -1.133-12.323.217.217 0 0 0 -.337-.274c-.053.066-5.254 6.64 1.168 12.907a.217.217 0 0 0 .282.018" fill="#251d1b" transform="translate(-24.312 7.068)"/><path d="m120.319 61.153a.236.236 0 0 0 .052-.038c.073-.074 7.311-7.336 10.169-9.7a.217.217 0 0 0 -.278-.334c-2.873 2.381-10.126 9.657-10.2 9.73a.217.217 0 0 0 .255.345" fill="#251d1b" transform="translate(-19.771 8.672)"/><path d="m120.8 60.2a.18.18 0 0 0 .085-.054.174.174 0 0 0 -.02-.245l-6-5.1a.174.174 0 0 0 -.226.265l6 5.1a.175.175 0 0 0 .161.034" fill="#251d1b" transform="translate(-18.305 7.665)"/><path d="m125.333 55.373a.184.184 0 0 0 .074-.042.175.175 0 0 0 0-.246l-5.257-5.4a.173.173 0 0 0 -.246 0 .175.175 0 0 0 0 .246l5.257 5.4a.172.172 0 0 0 .172.045" fill="#251d1b" transform="translate(-19.732 9.048)"/><path d="m130.54 51.913a.173.173 0 0 0 .082-.281l-3.341-3.769a.173.173 0 0 0 -.244-.015.171.171 0 0 0 -.015.244l3.34 3.769a.173.173 0 0 0 .177.052" fill="#251d1b" transform="translate(-21.656 9.542)"/><path d="m284.925 201.06h-283.216a2.207 2.207 0 0 1 0-4.3h283.216a2.207 2.207 0 0 1 0 4.3" fill="#251d1b" transform="translate(0 -30.997)"/><path d="m166.25 104.686c13.46 8.6 35.52 11.217 41.128 26.921s-16.077 26.172 21.686 24.677c0 0-1.87 1.5-1.87 5.982s3.739 10.47 3.739 10.47-36.642 2.991-44.12.747-13.46-14.582-5.608-27.668-17.573-15.7-17.573-15.7z" fill="#fff" stroke="#000" transform="translate(-31.561 -5.827)"/><path d="m108.268 22.459h9.721v8.724h-9.721z" fill="#2f2d2c"/><path d="m85.584 124.908h54.589v8.724h-54.589z" fill="#2f2d2c"/><path d="m109.264 131.575h5.422v24.864h-5.422z" fill="#2f2d2c"/><path d="m152.385 78.441a30.278 30.278 0 0 1 -5.272-26.021l8.187-31.541a4.579 4.579 0 0 0 -4.432-5.729h-6.789a10.791 10.791 0 0 1 -10.793-10.791v-1.285h-12.4v1.285a10.791 10.791 0 0 1 -10.793 10.791h-6.793a4.579 4.579 0 0 0 -4.432 5.729l8.185 31.541a30.281 30.281 0 0 1 -5.272 26.021 18.668 18.668 0 0 0 -3.681 8.859l.243 21.188h56.788l.929-21.188a18.623 18.623 0 0 0 -3.676-8.864" fill="#2f2d2c" stroke="#000" transform="translate(-13.854 21.628)"/><path d="m161.535 191.122c-2.521 0-4.366-.76-5.487-2.261a6.248 6.248 0 0 1 -.8-5.195 1.876 1.876 0 1 1 3.6 1.066 2.539 2.539 0 0 0 .214 1.895 3.161 3.161 0 0 0 2.474.744 1.1 1.1 0 0 0 1-.458 3.21 3.21 0 0 0 .468-1.842 7.371 7.371 0 0 0 -7.455-7.222c-5.022 0-8.085 1.822-11.045 3.584-2.558 1.522-4.974 2.959-8.211 2.959a1.876 1.876 0 0 1 0-3.751c2.205 0 4.009-1.074 6.292-2.432 3.079-1.832 6.91-4.112 12.964-4.112a11.11 11.11 0 0 1 11.206 10.973 6.784 6.784 0 0 1 -1.2 4.074 4.868 4.868 0 0 1 -4.02 1.977" fill="#2f2d2c" transform="translate(-23.668 -24.582)"/><path d="m98.148 191.122a4.869 4.869 0 0 1 -4.021-1.978 6.786 6.786 0 0 1 -1.2-4.074 11.11 11.11 0 0 1 11.203-10.97c6.054 0 9.885 2.279 12.963 4.112 2.284 1.358 4.087 2.432 6.292 2.432a1.876 1.876 0 0 1 0 3.751c-3.237 0-5.653-1.438-8.211-2.96-2.961-1.761-6.022-3.583-11.045-3.583a7.371 7.371 0 0 0 -7.456 7.221 3.214 3.214 0 0 0 .469 1.843 1.1 1.1 0 0 0 1 .458 3.161 3.161 0 0 0 2.474-.744 2.548 2.548 0 0 0 .209-1.912 1.886 1.886 0 0 1 1.292-2.309 1.866 1.866 0 0 1 2.311 1.261 6.248 6.248 0 0 1 -.8 5.195c-1.12 1.5-2.965 2.261-5.487 2.261" fill="#2f2d2c" transform="translate(-12.455 -24.582)"/><path d="m105.742 70.619c.205-.718 34.772-25.612 37.015-52.533a32.3 32.3 0 0 1 13.834 2.43s-.187 64.872-58.14 94.223c0 0-3.365.374-2.618-5.983s-2.617-13.273-.374-18.881 8.039-11.4 10.282-19.256" fill="#fff" stroke="#000" transform="translate(-12.93 17.583)"/><path d="m112.866 142.2q1.79-1.152 3.494-2.35a12.628 12.628 0 0 0 -3.494 2.35" fill="#fff" transform="translate(-17.844 -15.329)"/><path d="m119.789 94.049a2.117 2.117 0 0 1 -1.687-.918 3.428 3.428 0 0 1 -.528-1.82 8.976 8.976 0 0 1 -2.643.694.374.374 0 0 1 -.4-.259l-.812-2.554a1.175 1.175 0 0 1 -.021-.855 1.148 1.148 0 0 1 .855-.568 6.871 6.871 0 0 1 .906-.135 1.369 1.369 0 0 1 -.335-1.054c.088-.745.747-1.255 1.96-1.517a4.649 4.649 0 0 1 1.862-.109.385.385 0 0 1 .127.055 1.3 1.3 0 0 1 .45 1.073l.006.084a.547.547 0 0 0 .134.351 1.686 1.686 0 0 0 .148-.091 4.506 4.506 0 0 1 1.822-.822 1.808 1.808 0 0 1 1.585 3.148 5.089 5.089 0 0 1 -1.871 1.106l-.188.077a2.638 2.638 0 0 1 .319 1.2c.067.964.028 2.141-.885 2.693a1.54 1.54 0 0 1 -.808.22m-1.835-3.708a.375.375 0 0 1 .374.393 3.3 3.3 0 0 0 .393 1.973 1.228 1.228 0 0 0 1.488.481c.565-.342.577-1.247.525-2-.042-.6-.174-.939-.4-1.028a.375.375 0 0 1 -.006-.7l.743-.3a4.481 4.481 0 0 0 1.608-.927 1.281 1.281 0 0 0 .3-1.416 1.214 1.214 0 0 0 -1.236-.474 3.907 3.907 0 0 0 -1.513.7 1.035 1.035 0 0 1 -.54.215c-.574 0-.863-.537-.9-1.037l-.007-.09a1.2 1.2 0 0 0 -.088-.469 4 4 0 0 0 -1.444.131c-.593.127-1.314.382-1.372.87-.05.434.46.825.957 1a.375.375 0 0 1 -.168.726 6.008 6.008 0 0 0 -1.946.1c-.274.06-.323.126-.331.144a.708.708 0 0 0 .053.319l.717 2.257a8.247 8.247 0 0 0 2.626-.839.379.379 0 0 1 .172-.042" fill="#fff" transform="translate(-18.049 -.48)"/><path d="m115 18.3s3.507 29.58 13.333 28.133l-1.194 46.055-17.185-.982s-3.075-17.1-3.65-21.434-5.157-21.595-5.157-21.595 9.873-17.977 8.091-29.707z" fill="#fff" stroke="#000" transform="translate(-14.678 17.515)"/><path d="m126.9 91.829-.566-.035a.169.169 0 0 1 -.158-.179.176.176 0 0 1 .18-.158l.392.024.018-.609a.169.169 0 0 1 .174-.163.169.169 0 0 1 .162.174l-.023.784a.169.169 0 0 1 -.176.163m-1.916-.117-1.349-.082a.168.168 0 0 1 -.158-.179.182.182 0 0 1 .179-.158l1.348.082a.169.169 0 0 1 -.018.337m-2.7-.165-1.349-.082a.169.169 0 0 1 -.158-.179.19.19 0 0 1 .18-.158l1.349.082a.169.169 0 0 1 -.018.337m-2.7-.164-1.349-.082a.169.169 0 0 1 .018-.338l1.35.082a.169.169 0 0 1 -.018.337m-2.7-.165-1.348-.082a.169.169 0 0 1 .018-.337l1.348.082a.169.169 0 0 1 -.018.337m-2.7-.164-1.349-.082a.169.169 0 0 1 .018-.338l1.349.082a.169.169 0 0 1 -.018.337m-2.688-.178a.164.164 0 0 1 -.16-.161v-.007c0-.093-.015-.549-.061-1.339a.169.169 0 0 1 .338-.019c.045.8.058 1.255.061 1.349a.172.172 0 0 1 -.164.177h-.013m15.454-1.18a.17.17 0 0 1 -.162-.174l.039-1.35a.17.17 0 0 1 .174-.164.159.159 0 0 1 .163.174l-.039 1.351a.169.169 0 0 1 -.174.163zm-15.6-1.517a.169.169 0 0 1 -.161-.157q-.044-.608-.108-1.345a.17.17 0 0 1 .154-.183.173.173 0 0 1 .183.154c.042.493.078.944.107 1.35a.168.168 0 0 1 -.156.18h-.019m15.681-1.184a.169.169 0 0 1 -.162-.174l.04-1.351a.168.168 0 0 1 .174-.163.169.169 0 0 1 .161.174l-.039 1.351a.168.168 0 0 1 -.174.163zm-15.911-1.509a.171.171 0 0 1 -.161-.153q-.06-.637-.137-1.343a.17.17 0 0 1 .15-.186.164.164 0 0 1 .185.15c.051.471.1.92.139 1.346a.17.17 0 0 1 -.152.185h-.024m15.989-1.192a.169.169 0 0 1 -.161-.174l.039-1.35a.168.168 0 0 1 .174-.163.177.177 0 0 1 .163.174l-.039 1.351a.168.168 0 0 1 -.174.163zm-16.276-1.5a.17.17 0 0 1 -.161-.15q-.076-.646-.161-1.341a.168.168 0 0 1 .147-.188.166.166 0 0 1 .188.147q.088.7.162 1.344a.17.17 0 0 1 -.148.188zm16.355-1.2a.168.168 0 0 1 -.161-.173l.039-1.351a.169.169 0 0 1 .174-.164.169.169 0 0 1 .162.174l-.039 1.351a.168.168 0 0 1 -.173.163zm-16.691-1.477a.168.168 0 0 1 -.16-.146q-.088-.651-.184-1.339a.169.169 0 0 1 .144-.19.165.165 0 0 1 .19.144c.063.459.126.906.183 1.341a.168.168 0 0 1 -.144.19h-.03m16.77-1.224a.169.169 0 0 1 -.162-.174l.039-1.351a.168.168 0 0 1 .174-.163.169.169 0 0 1 .162.174l-.039 1.351a.169.169 0 0 1 -.174.163zm-17.148-1.453a.169.169 0 0 1 -.16-.144q-.1-.654-.205-1.336a.169.169 0 0 1 .334-.052q.106.682.2 1.337a.169.169 0 0 1 -.142.192.162.162 0 0 1 -.032 0m17.226-1.249a.168.168 0 0 1 -.162-.174l.039-1.35a.17.17 0 0 1 .174-.163.175.175 0 0 1 .163.174l-.039 1.349a.169.169 0 0 1 -.174.164zm-17.646-1.421a.17.17 0 0 1 -.16-.142c-.072-.436-.145-.88-.223-1.332a.168.168 0 1 1 .332-.057c.077.453.152.9.224 1.334a.169.169 0 0 1 -.139.194h-.034m17.725-1.279a.168.168 0 0 1 -.161-.173l.039-1.351a.168.168 0 0 1 .174-.164.168.168 0 0 1 .161.173l-.039 1.351a.168.168 0 0 1 -.173.164zm-18.177-1.382a.168.168 0 0 1 -.159-.139q-.117-.655-.242-1.329a.17.17 0 0 1 .136-.2.172.172 0 0 1 .2.136q.124.675.242 1.33a.169.169 0 0 1 -.136.2.164.164 0 0 1 -.037 0m18.26-1.316a.169.169 0 0 1 -.161-.174l.039-1.35a.169.169 0 0 1 .174-.164.17.17 0 0 1 .162.174l-.04 1.35a.169.169 0 0 1 -.174.164zm-18.752-1.341a.169.169 0 0 1 -.159-.136q-.126-.654-.259-1.325a.17.17 0 0 1 .133-.2.168.168 0 0 1 .2.133q.135.672.26 1.327a.169.169 0 0 1 -.134.2.141.141 0 0 1 -.039 0m18.831-1.36a.168.168 0 0 1 -.162-.174l.039-1.35a.169.169 0 0 1 .174-.163.169.169 0 0 1 .162.174l-.039 1.35a.169.169 0 0 1 -.174.163zm-19.366-1.28a.167.167 0 0 1 -.158-.134c-.09-.435-.182-.876-.277-1.322a.169.169 0 1 1 .331-.069q.141.668.276 1.323a.167.167 0 0 1 -.131.2.131.131 0 0 1 -.041 0m19.437-1.41a.17.17 0 0 1 -.162-.174l.039-1.35a.17.17 0 0 1 .174-.164.169.169 0 0 1 .161.174l-.039 1.35a.169.169 0 0 1 -.174.164zm-20-1.233a.171.171 0 0 1 -.158-.133q-.141-.652-.292-1.319a.169.169 0 1 1 .329-.074q.15.668.293 1.321a.169.169 0 0 1 -.129.2.219.219 0 0 1 -.043 0m20.076-1.468a.168.168 0 0 1 -.161-.174l.039-1.351a.168.168 0 0 1 .178-.157.168.168 0 0 1 .161.173l-.039 1.351a.168.168 0 0 1 -.173.164zm-20.669-1.168a.17.17 0 0 1 -.158-.131c-.1-.434-.2-.873-.307-1.315a.168.168 0 0 1 .328-.077q.159.663.309 1.317a.17.17 0 0 1 -.127.2.187.187 0 0 1 -.045 0m20.747-1.533a.169.169 0 0 1 -.161-.174l.039-1.35a.169.169 0 0 1 .174-.164.168.168 0 0 1 .161.174l-.035 1.359a.169.169 0 0 1 -.174.163zm-21.372-1.1a.168.168 0 0 1 -.157-.129q-.159-.649-.324-1.311a.169.169 0 0 1 .328-.081q.164.662.324 1.313a.169.169 0 0 1 -.125.2.148.148 0 0 1 -.047.005m21.451-1.6a.168.168 0 0 1 -.162-.174l.039-1.351a.169.169 0 0 1 .174-.163.169.169 0 0 1 .162.174l-.039 1.351a.168.168 0 0 1 -.174.163zm-22.1-1.007a.17.17 0 0 1 -.157-.127q-.166-.649-.339-1.307a.17.17 0 0 1 .121-.207.171.171 0 0 1 .207.121q.172.659.339 1.309a.17.17 0 0 1 -.122.206.164.164 0 0 1 -.049.005m-.686-2.613a.17.17 0 0 1 -.156-.126q-.174-.647-.354-1.3a.169.169 0 0 1 .326-.09q.18.657.354 1.3a.169.169 0 0 1 -.119.207.211.211 0 0 1 -.051.006m22.87.93a.169.169 0 0 1 -.162-.174l.039-1.351a.168.168 0 0 1 .174-.163.168.168 0 0 1 .161.174l-.039 1.351a.169.169 0 0 1 -.174.163zm-23.584-3.535a.169.169 0 0 1 -.155-.123q-.182-.646-.369-1.3a.168.168 0 0 1 .1-.2.175.175 0 0 1 -.1-.012.168.168 0 0 1 -.087-.223s.2-.452.532-1.248a.169.169 0 1 1 .312.131c-.335.8-.535 1.254-.535 1.254a.166.166 0 0 1 -.091.088.173.173 0 0 1 .193.12q.187.656.369 1.3a.167.167 0 0 1 -.169.215m23.664.836a.169.169 0 0 1 -.162-.174l.04-1.351a.168.168 0 0 1 .174-.163.169.169 0 0 1 .162.174l-.039 1.35a.168.168 0 0 1 -.174.163zm.078-2.7a.168.168 0 0 1 -.129-.069 6.473 6.473 0 0 1 -1.171-.174.169.169 0 0 1 -.124-.2.167.167 0 0 1 .2-.124 6.132 6.132 0 0 0 1.181.168h.056a.168.168 0 0 1 .161.174v.063a.168.168 0 0 1 -.174.163zm-2.525-.69a.162.162 0 0 1 -.066-.017 7.707 7.707 0 0 1 -1.178-.7.169.169 0 0 1 -.039-.236.171.171 0 0 1 .236-.039 7.47 7.47 0 0 0 1.126.673.169.169 0 0 1 -.08.32m-20.629-1.571a.169.169 0 0 1 -.15-.232c.155-.382.324-.8.5-1.256a.169.169 0 1 1 .315.124c-.18.455-.349.875-.5 1.259a.169.169 0 0 1 -.163.105m18.445.018a.173.173 0 0 1 -.111-.047 12.413 12.413 0 0 1 -.928-1 .169.169 0 1 1 .26-.216 11.993 11.993 0 0 0 .9.976.169.169 0 0 1 -.124.29m-17.451-2.543a.155.155 0 0 1 -.054-.011.17.17 0 0 1 -.1-.218q.234-.606.48-1.264a.169.169 0 0 1 .316.118q-.245.659-.48 1.268a.169.169 0 0 1 -.165.107m15.718.47a.167.167 0 0 1 -.131-.073c-.249-.36-.5-.747-.735-1.148a.169.169 0 0 1 .29-.173c.234.4.477.775.722 1.129a.169.169 0 0 1 -.043.234.167.167 0 0 1 -.1.031m-1.384-2.322a.166.166 0 0 1 -.143-.091c-.2-.393-.4-.8-.6-1.222a.169.169 0 0 1 .307-.142c.19.414.388.82.59 1.209a.169.169 0 0 1 -.072.228.166.166 0 0 1 -.085.018m-13.386-.682a.167.167 0 0 1 -.05-.01.169.169 0 0 1 -.1-.216q.227-.622.456-1.273a.173.173 0 0 1 .216-.1.17.17 0 0 1 .1.216c-.155.434-.307.86-.458 1.274a.169.169 0 0 1 -.166.112m12.253-1.773a.169.169 0 0 1 -.149-.1q-.257-.624-.5-1.265a.169.169 0 0 1 .317-.119q.238.636.492 1.255a.168.168 0 0 1 -.091.22.175.175 0 0 1 -.072.013m-11.353-.78a.176.176 0 0 1 -.047-.009.169.169 0 0 1 -.106-.215c.143-.421.287-.849.428-1.282a.168.168 0 1 1 .32.1c-.142.434-.285.863-.428 1.286a.17.17 0 0 1 -.168.115m10.4-1.754a.169.169 0 0 1 -.153-.115q-.217-.643-.419-1.292a.168.168 0 0 1 .111-.211.17.17 0 0 1 .212.112q.2.645.417 1.284a.169.169 0 0 1 -.106.214.162.162 0 0 1 -.061.009m-9.56-.817a.173.173 0 0 1 -.043-.008.168.168 0 0 1 -.111-.211q.2-.641.4-1.292a.171.171 0 0 1 .21-.113.169.169 0 0 1 .113.21q-.2.651-.4 1.3a.168.168 0 0 1 -.168.118m8.755-1.768a.169.169 0 0 1 -.155-.123c-.125-.437-.243-.874-.358-1.309a.169.169 0 1 1 .327-.087q.171.65.356 1.3a.169.169 0 0 1 -.116.209.166.166 0 0 1 -.053.006m-7.979-.823a.289.289 0 0 1 -.039-.006.169.169 0 0 1 -.116-.209c.123-.434.242-.869.36-1.3a.169.169 0 1 1 .326.088c-.117.436-.238.873-.361 1.308a.168.168 0 0 1 -.17.123m7.291-1.8a.169.169 0 0 1 -.158-.129q-.161-.668-.307-1.322a.169.169 0 1 1 .329-.073q.146.65.307 1.316a.17.17 0 0 1 -.124.2.174.174 0 0 1 -.047 0m-6.593-.82-.034-.005a.169.169 0 0 1 -.123-.2q.164-.659.311-1.314a.163.163 0 0 1 .2-.128.169.169 0 0 1 .127.2q-.148.657-.312 1.32a.172.172 0 0 1 -.171.128m6-1.822a.17.17 0 0 1 -.158-.135q-.139-.68-.263-1.331a.169.169 0 1 1 .331-.063q.124.648.263 1.327a.169.169 0 0 1 -.131.2.131.131 0 0 1 -.041 0m-5.407-.819h-.026a.169.169 0 0 1 -.132-.2q.135-.669.245-1.325a.166.166 0 0 1 .195-.138.169.169 0 0 1 .138.195c-.074.439-.157.885-.247 1.336a.169.169 0 0 1 -.173.135m4.9-1.844a.169.169 0 0 1 -.159-.139c-.081-.464-.156-.912-.225-1.339a.169.169 0 0 1 .141-.193.173.173 0 0 1 .193.14c.068.426.142.872.223 1.334a.168.168 0 0 1 -.137.2.155.155 0 0 1 -.036 0m-4.45-.823h-.01a.17.17 0 0 1 -.15-.19c.061-.457.112-.907.15-1.337a.164.164 0 0 1 .184-.153.169.169 0 0 1 .153.183c-.039.436-.09.89-.153 1.352a.169.169 0 0 1 -.174.147m4.02-1.853a.171.171 0 0 1 -.161-.145c-.071-.492-.133-.942-.185-1.346a.169.169 0 0 1 .145-.189.163.163 0 0 1 .189.145c.053.4.115.852.186 1.343a.17.17 0 0 1 -.143.191h-.031m-3.784-.84a.17.17 0 0 1 -.162-.175c.016-.469.015-.92 0-1.338a.168.168 0 0 1 .161-.175.164.164 0 0 1 .187.153c.018.426.018.885 0 1.363a.169.169 0 0 1 -.174.163zm3.434-1.852a.17.17 0 0 1 -.161-.15c-.035-.311-.058-.544-.073-.686l-.347.023a.171.171 0 0 1 -.18-.157.168.168 0 0 1 .157-.18l.51-.035a.167.167 0 0 1 .18.153s.028.3.088.844a.169.169 0 0 1 -.149.187h-.026m-3.3-.628a.169.169 0 0 1 0-.337l1.348-.092a.162.162 0 0 1 .18.157.168.168 0 0 1 -.157.18l-1.348.092z" fill="#3c251d" transform="translate(-15.387 16.921)"/><path d="m107.488 72.1a.169.169 0 0 1 0-.338l1.349-.074a.169.169 0 1 1 .019.337l-1.356.075h-.017m2.7-.15a.169.169 0 0 1 0-.338l1.349-.074a.166.166 0 0 1 .178.159.169.169 0 0 1 -.159.178l-1.349.075h-.016m2.7-.15a.169.169 0 0 1 0-.338l1.349-.074a.164.164 0 0 1 .178.159.169.169 0 0 1 -.16.178l-1.353.075zm2.7-.15a.169.169 0 0 1 0-.338l1.349-.074a.169.169 0 0 1 .019.337l-1.349.075h-.016m2.7-.15a.169.169 0 0 1 0-.338l1.349-.074a.172.172 0 0 1 .178.159.169.169 0 0 1 -.16.178l-1.356.075zm2.7-.15a.169.169 0 0 1 0-.337l.29-.016a.164.164 0 0 1 .178.159.168.168 0 0 1 -.159.178l-.29.016h-.017" fill="#3c251d" transform="translate(-16.348 3.277)"/><path d="m124.541 106.437a.169.169 0 0 1 -.162-.169s0-.485 0-1.357a.17.17 0 0 1 .168-.169.179.179 0 0 1 .17.168v1.36a.169.169 0 0 1 -.169.168zm-.015-2.712a.169.169 0 0 1 -.162-.166l-.016-1.354a.17.17 0 0 1 .167-.171.166.166 0 0 1 .172.167l.016 1.354a.17.17 0 0 1 -.167.172h-.009m-.036-2.706a.169.169 0 0 1 -.162-.166l-.029-1.355a.169.169 0 0 1 .166-.172h.007a.17.17 0 0 1 .165.166l.025 1.353a.171.171 0 0 1 -.166.172zm-.054-2.705a.168.168 0 0 1 -.161-.165c-.01-.438-.021-.89-.034-1.352a.168.168 0 0 1 .164-.174.164.164 0 0 1 .173.164q.019.7.034 1.353a.167.167 0 0 1 -.165.172h-.011m-.07-2.705a.169.169 0 0 1 -.162-.163q-.019-.663-.042-1.352a.169.169 0 0 1 .163-.174.166.166 0 0 1 .174.163q.023.689.042 1.353a.168.168 0 0 1 -.163.173zm-.088-2.7a.169.169 0 0 1 -.161-.163q-.024-.668-.052-1.351a.168.168 0 0 1 .162-.175.16.16 0 0 1 .175.162c.018.455.036.906.052 1.352a.168.168 0 0 1 -.163.174h-.013m-.107-2.7a.168.168 0 0 1 -.161-.161l-.061-1.35a.169.169 0 0 1 .161-.177.163.163 0 0 1 .177.161l.061 1.352a.168.168 0 0 1 -.161.176h-.015m-.127-2.7a.169.169 0 0 1 -.161-.16q-.035-.672-.072-1.349a.169.169 0 1 1 .337-.019c.026.451.049.9.072 1.351a.168.168 0 0 1 -.16.177zm-.15-2.7a.168.168 0 0 1 -.161-.158l-.085-1.348a.169.169 0 1 1 .338-.021l.084 1.349a.169.169 0 0 1 -.158.179h-.018m-.176-2.7a.169.169 0 0 1 -.161-.157q-.047-.677-.1-1.351a.168.168 0 0 1 .155-.181.173.173 0 0 1 .181.155q.051.675.1 1.352a.169.169 0 0 1 -.156.18zm-.207-2.7a.17.17 0 0 1 -.161-.155q-.055-.677-.115-1.346a.17.17 0 0 1 .153-.184.166.166 0 0 1 .184.153q.06.672.116 1.349a.169.169 0 0 1 -.155.182h-.021m-.242-2.693a.168.168 0 0 1 -.161-.152l-.042-.42a.169.169 0 0 1 .153-.184.167.167 0 0 1 .184.153l.041.417a.169.169 0 0 1 -.151.185h-.024" fill="#3c251d" transform="translate(-20.6 1.936)"/><path d="m89.438 130.079c-.4-.21-1.054.246-1.457 1.018s-9.3 19.6-9.441 19.859c-.145.278 10.493-18.328 10.9-19.1s.4-1.568 0-1.778m-1.413 2.653c-.195-.1-.1-.676.222-1.283s.731-1.017.926-.916.1.677-.221 1.284-.732 1.016-.927.915" fill="#2f2d2c" transform="translate(-25.182 -25.92)"/><path d="m65.713 120.692c-.4.1-.5 1.135-.205 2.312s7.974 29.112 8.073 29.512c.105.423-6.318-28.7-6.609-29.875s-.855-2.048-1.259-1.949m.982 4.066c-.2.048-.54-.662-.769-1.586s-.256-1.716-.06-1.765.541.663.77 1.589.255 1.715.059 1.762" fill="#2f2d2c" transform="translate(-24.176 -25.21)"/><path d="m68.519 121.974a2.559 2.559 0 1 0 -1.577 3.256 2.558 2.558 0 0 0 1.577-3.256" fill="#2f2d2c" transform="translate(-24.039 -25.177)"/><path d="m84.724 161.178h-25.646a3.8 3.8 0 0 0 -3.8 3.8v25.474a3.8 3.8 0 0 0 3.8 3.8h25.646a3.8 3.8 0 0 0 3.8-3.8v-25.475a3.8 3.8 0 0 0 -3.8-3.8" fill="#2f2d2c" stroke="#000" transform="translate(-23.412 -28.29)"/><path d="m85.907 155.592s-3.084-7.026-14.394-7.026-13.452 7.625-13.452 7.625l23.139 1.971z" fill="#2f2d2c" stroke="#000" transform="translate(-23.623 -27.331)"/><path d="m33.926 127.918h28.789v4.97h-28.789z" fill="#fff" stroke="#000" stroke-linecap="round" stroke-linejoin="round"/><path d="m76.906 128.769c-.249-.024-.506.548-.574 1.273s-1.215 18.139-1.238 18.387 2.076-17.576 2.144-18.3-.081-1.335-.332-1.358m-.245 2.507c-.121-.01-.176-.482-.124-1.055s.193-1.026.314-1.014.177.484.125 1.055-.194 1.026-.315 1.014" fill="#2f2d2c" transform="translate(-24.918 -25.825)"/><path d="m58 130.789a1.343 1.343 0 0 0 -.5 1.8c.314.75 8.884 18.223 8.99 18.478s-6.54-18.622-6.855-19.371a1.343 1.343 0 0 0 -1.635-.907m1.05 2.6c-.285.12-.717-.261-.964-.851s-.216-1.165.069-1.285.718.261.965.852.214 1.165-.071 1.284" fill="#2f2d2c" transform="translate(-23.57 -25.973)"/><path d="m78.332 130.08a1.541 1.541 0 1 0 -1.541 1.541 1.541 1.541 0 0 0 1.541-1.541" fill="#2f2d2c" transform="translate(-24.93 -25.807)"/><path d="m-20580.658 7031.93s-21.314 7.292-30.035 7.438a105.908 105.908 0 0 1 -15.939-.959s-1.074-1.128-.971-1.614-1.74-1.008-1.309-2.011-3.475-1.427-2.818-2.252 8.084 0 8.084 0l-2.256-3.563s.07-1.224 1.156-1.1 4.117 2.063 4.117 2.063h6.93l25.594-12.18 13.023-5.626-1.74-10.486s11.184-2.369 18.021-7.779" fill="#fff" stroke="#000" transform="translate(20798.571 -6910.806)"/><path d="m-20169.23 7489.748 5.439 15.388s5.105 15-27.629 22.854" fill="none" stroke="#000" transform="translate(20409 -7406.69)"/></svg>