<svg height="251.247" viewBox="0 0 286.634 251.247" width="286.634"
    xmlns="http://www.w3.org/2000/svg">
    <clipPath id="a">
        <path d="m0 0h41.227v18.831h-41.227z" />
    </clipPath>
    <g transform="translate(-44 -2458.477)">
        <path d="m284.925 201.06h-283.216a2.207 2.207 0 0 1 0-4.3h283.216a2.207 2.207 0 0 1 0 4.3"
            fill="#251d1b" transform="translate(44 2460.245)" />
        <path
            d="m224.344 89.079-13.413 37.615c-1.44 12.144 9.79 16.818 14.269 18.423 7.174 2.571 19.413 5.647 36.614 5.462l1.995-7.949s-19.495-2.255-27.773-9.358l5.934-28.73z"
            fill="none" stroke="#000" stroke-miterlimit="10" transform="translate(-132 2505.903)" />
        <path
            d="m196.835 55.408c3.507-5.935 9.543-9.62 13.261-15.408 6.065-9.443 4.767-22.442 11.127-31.658 3.533-5.122 9.257-8.362 14.733-8.342 4.269.015 11.316.172 13.615 5.636a18.528 18.528 0 0 0 -.377-3c-.172-.816 1.081-1.166 1.254-.346a19.894 19.894 0 0 1 .376 5.766 7.278 7.278 0 0 1 2.953-.12c.823.131.474 1.383-.346 1.253a5.671 5.671 0 0 0 -2.359.125 10.4 10.4 0 0 1 4.733 7.348c.462 3.6-.55 7.405-1.753 11s-2.624 7.177-3.034 10.892c-.746 6.757 1.917 12.913 4.382 18.748s4.846 12.256 3.522 18.972c-1.522 7.737-7.853 14.026-14.63 16.706s-13.931 2.34-20.7 1.259c-5.911-.943-11.766-2.449-16.9-5.47a26.134 26.134 0 0 1 -11.654-13.753 24.023 24.023 0 0 1 1.794-19.609"
            fill="#2f2d2c" transform="translate(-115.18 2530.695)" />
        <path
            d="m169.073 102.89 7.084-22.079a3.643 3.643 0 0 1 .49-1.528l.112-.349.063.056c.012-.019.021-.037.033-.056 3.178-4.761 18.061-11.753 19.91-12.26.3-.084.491-.125.549-.141a.078.078 0 0 1 .029-.009 16.5 16.5 0 0 1 2.937-.641c.106-.017.212-.033.308-.042 5.258-.549 9.881.367 15.178.225a30.075 30.075 0 0 1 4.247.175.619.619 0 0 1 .125.017h.01a.372.372 0 0 1 .067.008h.02c.452.134.9.258 1.348.391.3.1.645.234 1.02.383 4.863 2.023 15.765 8.8 21.139 30.274.231.941.462 1.915.674 2.914.048.224.087.458.144.691 1.714 8.39 1.887 20.71 1.425 33.613-.01 0 .662 10.754.652 10.762-4.411 1.033-11.478-.25-16.437.057-6.626.4-32.425.592-38.213-.4.77-9.835-19.143-38-22.337-40.3a1.575 1.575 0 0 1 -.579-1.763"
            fill="#fff" transform="translate(-84.658 2512.419)" />
        <path
            d="m169.176 102.89 7.084-22.079a3.644 3.644 0 0 1 .49-1.528l.112-.349.064.056c.012-.019.021-.037.033-.056 3.178-4.761 18.062-11.753 19.91-12.26.3-.084.491-.125.549-.141a.078.078 0 0 1 .029-.009 16.5 16.5 0 0 1 2.937-.641c.106-.017.211-.033.308-.042 5.258-.549 9.881.367 15.178.225a30.074 30.074 0 0 1 4.247.175.619.619 0 0 1 .125.017h.01a.372.372 0 0 1 .067.008h.02c.452.134.9.258 1.348.391.3.1.645.234 1.02.383 4.863 2.023 15.765 8.8 21.139 30.274.231.941.462 1.915.674 2.914.048.224.087.458.144.691 1.714 8.39 2.4 31.79 1.942 44.692l-54.244-.6.364-32.628c-8.91 1.753-19.777-5.427-22.972-7.726a1.575 1.575 0 0 1 -.578-1.767z"
            fill="none" stroke="#000" stroke-miterlimit="10"
            transform="translate(-84.762 2512.419)" />
        <path
            d="m212.727 54.537 2.273.353c-.234 2.621-.5 5.182-.659 6.739 2.593 2.495 6.408 1.412 9.751 1.614 2.633.152 4.368 2.221 6.666.856-1.04-2.212-.282-3.157-1.259-7.49a5.705 5.705 0 0 1 -.729-.543s-.542-1.684-1.174-4.339a75.746 75.746 0 0 1 -1.732-10.17c-.187-1.095-.354-2.151-.493-3.121-.012-.088-.024-.169-.03-.259-.369-2.587-.608-5.128-.729-7.591a29.7 29.7 0 0 0 -6.467-4.609q-.545-.3-1.094-.577a27.906 27.906 0 0 1 -2.815 7.814c.068.4.131.793.188 1.194.138.922.261 1.834.381 2.758.048.377.09.75.127 1.132.005.034 0 .071.007.1.037.256.063.524.089.782.093.931.168 1.86.23 2.793a27.92 27.92 0 0 1 -2.533 12.56"
            fill="#fff" transform="translate(-100.336 2523.625)" />
        <path
            d="m224.813 42.882c-3.053 2.4-8.823 1.361-12.108-.716s-4.967-4.675-6.29-8.335c-.071-.215-.15-.433-.218-.656.083-.453.15-.91.193-1.376.119-1.238.1-2.5.115-3.753a14.009 14.009 0 0 1 1.049-6.089 10.353 10.353 0 0 1 5.725-4.783 83.949 83.949 0 0 1 12.064-2.019.541.541 0 0 1 .592.523l.155 4.866v.008a19.172 19.172 0 0 0 .064 2.1c.3 3.578 1.341 7.077 1.509 10.665s-.037 7.334-2.848 9.566"
            fill="#fff" transform="translate(-92.568 2526.479)" />
        <path
            d="m239.252 30.766a2.174 2.174 0 0 0 -.833-2 1.923 1.923 0 0 0 -2.055.5 4.727 4.727 0 0 0 3.191 8.3c.01-2.212-.289-4.581-.3-6.793"
            fill="#fff" transform="translate(-125.027 2522.729)" />
        <path
            d="m222.284 27.3a.721.721 0 0 0 -1 .17 2.377 2.377 0 0 0 -.17 2.173.725.725 0 0 0 .954.342.69.69 0 0 0 .334-.341 1.935 1.935 0 0 0 -.118-2.345"
            transform="translate(-97.451 2522.749)" />
        <path
            d="m210.711 28.57a.705.705 0 0 0 -.979.167 2.327 2.327 0 0 0 -.168 2.131.711.711 0 0 0 .936.336.672.672 0 0 0 .327-.335 1.9 1.9 0 0 0 -.116-2.3"
            transform="translate(-78.582 2522.425)" />
        <path
            d="m208.813 67.487 1.017.469c2.064 1.623 12.653 9.723 17.988 9.723a4.189 4.189 0 0 0 3.763-1.931 5.007 5.007 0 0 0 .682-2.955 16.686 16.686 0 0 0 -1.6-5.644c-.075-.158-.141-.316-.217-.483a15.852 15.852 0 0 0 -1.832-.292h-.014a.275.275 0 0 0 -.058-.008h-.009a.469.469 0 0 0 -.108-.017 22.487 22.487 0 0 0 -3.67-.175c-4.578.141-8.117-.427-12.662.122-.083.008 0 .749-.282.3a8.261 8.261 0 0 0 -2.037.59l-.621.3c-.053.014-.082-.086-.34.001z"
            fill="none" stroke="#000" stroke-linecap="round" stroke-linejoin="round"
            transform="translate(-99.021 2512.311)" />
        <path
            d="m222.184 71.654a86.382 86.382 0 0 1 -8.353-5.536c-.964-.717-1.552-1.178-1.552-1.178a7.852 7.852 0 0 1 1.419-1.27c5.639-3.862 14.7 1.528 14.7 1.528a35.2 35.2 0 0 1 1.5 3.442c2.756 7.519-2.315 6.063-7.715 3.015"
            fill="#fff" transform="translate(-99.928 2513.362)" />
        <path
            d="m112.338 91.867c6.67 10.477 10.282 22.546 14.695 34.156 2.984 7.851 6.5 15.721 11.379 22.488a22.777 22.777 0 0 1 17.656 5.952 39.827 39.827 0 0 1 -7.433 1.55 16.512 16.512 0 0 1 -3.723-.049c.5.471 1.015.936 1.542 1.386-3.74 1.425-8.062.581-11.488-1.49-2.89-1.747-4.995-4.519-6.931-7.287a150.757 150.757 0 0 1 -21.892-46.752c2.177-3.155 4.017-6.799 6.195-9.954z"
            fill="none" stroke="#000" stroke-miterlimit="10"
            transform="translate(47.191 2500.419)" />
        <path
            d="m213.358 171.219a6.447 6.447 0 0 0 -6.232-2.159 19.026 19.026 0 0 1 -3.126.782c-3.193.146-5.608-3.629-8.794-3.362-2.011.168-3.5 1.9-5.313 2.776-2.929 1.418-6.389.522-9.642.624a15.519 15.519 0 0 0 -10.451 4.568c13.407.907 26.849 1.573 40.287 1.67a4.065 4.065 0 0 0 2.855-.709 3.222 3.222 0 0 0 .415-4.189"
            fill="#2f2d2c" transform="translate(-52.553 2484.366)" />
        <path
            d="m40.462 77.9c1.15 0 2.278.047 3.376.136a2.657 2.657 0 0 1 2.441 2.649v15.215a2.658 2.658 0 0 1 -2.441 2.649c-1.1.089-2.226.136-3.376.136a40.61 40.61 0 0 1 -5.817-.411v-19.966a40.613 40.613 0 0 1 5.817-.412"
            fill="none" stroke="#000" transform="translate(212.662 2509.015)" />
        <path
            d="m32.6 64.031v58.021h18.794a7.29 7.29 0 0 0 6.69-4.393l6.116-14.159a7.318 7.318 0 0 1 6.716-4.412h9.518a7.317 7.317 0 0 1 7.316 7.316v37.83h49.177v-16.152a6.03 6.03 0 0 0 -6.032-6.03h-2.988l4.98-54.623a3.113 3.113 0 0 0 -3.1-3.4z"
            fill="#2f2d2c" transform="translate(123.484 2512.874)" />
        <path
            d="m167.259 64.031h12.569a3.112 3.112 0 0 1 3.1 3.4l-4.778 51.8a3.112 3.112 0 0 1 -3.1 2.825h-3.013a3.112 3.112 0 0 1 -3.1-2.825l-4.778-51.8a3.112 3.112 0 0 1 3.1-3.4"
            transform="translate(-17.459 2512.874)" />
        <path d="m32.6 144.427v22.184h33.2v-16.154a6.03 6.03 0 0 0 -6.032-6.03z" fill="#2f2d2c"
            transform="translate(194.613 2490.499)" />
        <path
            d="m70.008 112.611a7.317 7.317 0 0 1 7.316 7.316v37.829h22.184v-16.156a6.03 6.03 0 0 0 -6.032-6.03h-.176v-15.822a7.136 7.136 0 0 0 -7.137-7.137z"
            transform="translate(133.912 2499.354)" />
        <path
            d="m40 154.691h15.125a1.164 1.164 0 0 1 1.164 1.163v7.835a1.163 1.163 0 0 1 -1.164 1.163h-15.125a1.163 1.163 0 0 1 -1.163-1.163v-7.835a1.164 1.164 0 0 1 1.163-1.163"
            fill="#fff" transform="translate(199.625 2487.643)" />
        <path d="m50.122 126.909a5.68 5.68 0 1 0 5.662-6.128 5.909 5.909 0 0 0 -5.662 6.128"
            fill="#fff" transform="translate(186.322 2497.08)" />
        <path
            d="m50.122 106.272a6.007 6.007 0 0 0 4.731 6.043s0 0 0 0a5.15 5.15 0 0 0 .93.084 6.146 6.146 0 0 0 0-12.254 5.15 5.15 0 0 0 -.93.084s0 0 0 0a6.007 6.007 0 0 0 -4.731 6.043"
            fill="#fff" transform="translate(186.32 2502.823)" />
        <path
            d="m83.646 100.687h27.387a2.287 2.287 0 0 0 2.278-2.078l1.017-11.009a2.288 2.288 0 0 0 -2.278-2.5h-27.388a2.287 2.287 0 0 0 -2.278 2.078l-1.017 11.01a2.288 2.288 0 0 0 2.278 2.5"
            fill="#fff" transform="translate(110.893 2507.011)" />
        <path d="m163.85 2634.927h4.915v9.541h-4.915z" fill="#fff" stroke="#000" />
        <path
            d="m163.729 157.648v5.96a1.988 1.988 0 0 1 -.217.9l-.764 1.494a.233.233 0 0 1 -.416 0l-.763-1.494a1.988 1.988 0 0 1 -.218-.9v-5.96z"
            fill="none" stroke="#000" transform="translate(3.77 2486.82)" />
        <path d="m157.777 2654.319h17.065v2.791h-17.065z" fill="#fff" stroke="#000" />
        <g fill="#fff" stroke="#000" stroke-linecap="round" stroke-linejoin="round">
            <path d="m199.895 2649.542h21.772v4.26h-21.772z" stroke="none" />
            <path d="m199.395 2649.042h22.772v5.26h-22.772z" fill="none" />
        </g>
        <path
            d="m87.635 160.627v9.57a.967.967 0 0 0 .967.967h17.9a.967.967 0 0 0 .966-.967v-9.57a.967.967 0 0 0 -.966-.967h-17.902a.967.967 0 0 0 -.967.967"
            fill="#2f2d2c" transform="translate(113.23 2486.26)" />
        <path
            d="m110.894 159.212q.565 5.285 1.129 10.57.079.748.16 1.5c.02.19-.277.188-.3 0q-.565-5.285-1.129-10.57-.08-.749-.16-1.5c-.02-.19.277-.189.3 0"
            fill="#fff" transform="translate(91.945 2486.424)" />
        <path d="m109.419 159.212v12.067a.149.149 0 0 1 -.3 0v-12.067a.149.149 0 0 1 .3 0"
            fill="#fff" transform="translate(95.773 2486.425)" />
        <path
            d="m105.165 159.17 1.561 10.551q.112.758.224 1.516c.027.187-.259.268-.286.079l-1.564-10.551q-.111-.758-.224-1.515c-.028-.188.258-.268.286-.079"
            fill="#fff" transform="translate(101.303 2486.427)" />
        <path
            d="m103.1 159.212q-.318 5.277-.636 10.555-.045.756-.092 1.512c-.011.19-.309.191-.3 0l.637-10.555.091-1.511c.012-.191.309-.191.3 0"
            fill="#fff" transform="translate(107.172 2486.424)" />
        <path
            d="m96.5 159.212q-.575 5.285-1.149 10.57l-.162 1.5c-.021.188-.318.191-.3 0q.574-5.285 1.148-10.57.082-.749.163-1.5c.02-.188.318-.191.3 0"
            fill="#fff" transform="translate(118.969 2486.424)" />
        <path
            d="m94.455 159.25-1.648 10.55q-.118.758-.237 1.516c-.029.188-.316.108-.287-.079l1.648-10.551q.118-.758.237-1.516c.029-.188.316-.108.287.079"
            fill="#fff" transform="translate(122.885 2486.426)" />
        <path
            d="m89.826 159.212.444 10.555q.031.756.063 1.512c.008.191-.289.191-.3 0l-.444-10.555q-.031-.756-.063-1.511c-.008-.191.289-.191.3 0"
            fill="#fff" transform="translate(128.998 2486.424)" />
        <path d="m215.083 35.624-1.644.233.191-4.487z" transform="translate(-85.174 2521.964)" />
        <g fill="none">
            <path d="m222.712 23.459a2.606 2.606 0 0 0 -1.654.209 1.933 1.933 0 0 0 -.9.836"
                stroke="#000" stroke-linecap="round" stroke-linejoin="round" stroke-width="1.23"
                transform="translate(-97.658 2524.18)" />
            <path d="m210.935 24.882a2.12 2.12 0 0 0 -2.258-.6" stroke="#000" stroke-linecap="round"
                stroke-linejoin="round" stroke-width="1.23"
                transform="translate(-77.59 2523.969)" />
            <path d="m0 0c2.976 1.808 4.374 1.288 5.425.547" stroke="#000" stroke-linecap="round"
                stroke-linejoin="round" stroke-width="1.23"
                transform="translate(125.553 2562.245)" />
            <path
                d="m277.462 45.884s-1.228 6.23-11.952 16.632-10.656 9.292-7.321 21.677 1.591 7.985 6.019 11.912"
                stroke="#000" stroke-miterlimit="10" transform="translate(-179.383 2517.924)" />
            <path d="m111.9 2554.888 1.425 1.157" stroke="#000" stroke-linecap="round"
                stroke-linejoin="round" stroke-width="1.2" />
            <path
                d="m234.334 55.731a29.3 29.3 0 0 0 3.1-1.091c.224-1.953 1.893-8.483 2.028-13.1l-.095-1.285c-.417-1.718-.877-3.143-1.417-5.026-2.539-.454-4.049-1.8-4.243-4.113a3.446 3.446 0 0 1 2.3-3.873 2.008 2.008 0 0 1 2.423.993c0-.014 1.4-4.418 1.4-4.418"
                stroke="#000" stroke-linecap="round" stroke-linejoin="round" stroke-width="1.462"
                transform="translate(-124.545 2524.067)" />
            <path
                d="m225.318 54.335a8.162 8.162 0 0 1 -3.782-1 6.374 6.374 0 0 1 -.623-.385c-.1-.074-.207-.155-.318-.25"
                stroke="#000" stroke-linecap="round" stroke-linejoin="round" stroke-width=".902"
                transform="translate(-100.574 2516.028)" />
        </g>
        <path
            d="m235.727 39.653a1.21 1.21 0 0 0 2.42 0c0-.668-.542-1.73-1.21-1.73s-1.21 1.062-1.21 1.73"
            fill="#fff" transform="translate(-124.322 2520.141)" />
        <path
            d="m213.127 15.88s.2 8.713.48 9.7a30.419 30.419 0 0 1 1.13 10.589c-.282 8.743-5.157 8.286-6.958 8.286-.23.164-1.159-.167-1.476.013.305 1.264 1.079 6.6 1.631 7.778a5.17 5.17 0 0 0 1.572.177"
            fill="none" stroke="#000" stroke-linecap="round" stroke-linejoin="round"
            transform="translate(-79.76 2526.275)" />
        <path
            d="m134.456 175.165v43.213c0 2.112 4.495 5.352 7.631 2.716 5.222-4.39 10.122-.393 11.023 0 3.908 1.7 5.737 4.214 9.634 4.752 8.135 1.124 11.169-8.956 15.479-7.036 6.9 3.074 12.066.32 12.066-2.08v-41.565z"
            fill="#fff" stroke="#000" transform="translate(-3.383 2483.311)" />
        <path
            d="m1443.252 306.537-2.229 11.039 30.76 11.879s8.688-.558 10.662-2.859 8.384.553 9.4 2.859 2.719 5.765 2.719 5.765l-17.635 2.111-16.467 1.073-14.114-2.357"
            fill="#fff" stroke="#000" transform="translate(-1339.828 2318.473)" />
        <path
            d="m134.456 175.165v43.213c0 2.112 4.495 5.352 7.631 2.716 5.222-4.39 10.122-.393 11.023 0 3.908 1.7 5.737 4.214 9.634 4.752 8.135 1.124 11.169-8.956 15.479-7.036 6.9 3.074 12.066.32 12.066-2.08v-41.565z"
            fill="none" stroke="#000" transform="translate(-3.383 2483.311)" />
        <path d="m1450.349 327.106c-1.353-.35-5.538-1.6-7.341-1.369" fill="none" stroke="#000"
            stroke-linecap="round" transform="translate(-1297.949 2321.885)" />
        <path d="m1449.893 329.643s-6-1.478-8.081-1.225" fill="none" stroke="#000"
            stroke-linecap="round" transform="translate(-1296.088 2322.361)" />
        <g clip-path="url(#a)" transform="translate(274.364 2506.492)">
            <path
                d="m26.277 12.016c-1.384-.5-3.6-1.258-4.871-1.715l-20.6 6.65c7.785 1.17 22.165-2.4 25.469-4.935m7.863 5.017c3.826 1.94 6.309-2.819 2.483-4.759-1.606-.815-3.791-.56-4.476.754s.387 3.19 1.993 4m.865-14.938c-1.194.693-2.33 2.669-1.565 4 .8 1.387 3.105 1.317 4.334.6 3.732-2.166.965-6.768-2.769-4.6m-3.4 9.866c4.422-3.018 10.918 1.207 7.871 5.467-2.241 3.134-9.251.731-8.463-4.37l-31.011-11.033c8.649-5.6 25.124 4.685 31.605 9.941m-6.071-2.561a.584.584 0 1 0 .626.583.606.606 0 0 0 -.626-.583m7.324-2.178c-1.253.732-2.538 1.517-3.791 2.249-.649-.511-1.266-.968-1.916-1.426l5.011-1.985c-.742-4.383 5.154-8.477 8.223-4.352s-2.933 8.992-7.527 5.519"
                fill="#36342c" fill-rule="evenodd" />
        </g>
        <path
            d="m54.082 56.431h-27.835c-5.031 0-9.111-6.075-9.111-13.57v-2.154c0-7.495 4.08-13.57 9.111-13.57h61.878c5.033 0 9.112-6.073 9.112-13.568s-4.079-13.569-9.112-13.569h-88.125"
            fill="none" stroke="#fd9a03" stroke-dasharray="2.934 5.867" stroke-linejoin="round"
            stroke-width="2" transform="translate(208.502 2459.477)" />
    </g>
</svg>