<svg height="287.902" viewBox="0 0 245.762 287.902" width="245.762" xmlns="http://www.w3.org/2000/svg" xmlns:xlink="http://www.w3.org/1999/xlink"><clipPath id="a"><rect height="3.933" rx=".925" width="7.635" x="130.3" y="14.964"/></clipPath><clipPath id="b"><path d="m.463 0h5.322a.462.462 0 0 1 .462.462v1.62a.463.463 0 0 1 -.463.463h-5.321a.463.463 0 0 1 -.463-.463v-1.619a.463.463 0 0 1 .463-.463z" transform="translate(130.994 15.658)"/></clipPath><clipPath id="c"><path d="m125.137 17.88a.111.111 0 0 0 0 .158l.694.7a.117.117 0 0 0 .077.031.113.113 0 0 0 .077-.031l.69-.7a.108.108 0 0 0 .033-.08.111.111 0 0 0 -.035-.078 1.187 1.187 0 0 0 -1.534 0m-.926-.933a.111.111 0 0 0 -.035.079.113.113 0 0 0 .032.08l.4.4a.108.108 0 0 0 .15 0 1.7 1.7 0 0 1 1.143-.44 1.7 1.7 0 0 1 1.143.44.108.108 0 0 0 .15 0l.4-.4a.117.117 0 0 0 .032-.08.116.116 0 0 0 -.035-.079 2.482 2.482 0 0 0 -3.384 0m-.926-.932a.115.115 0 0 0 -.035.079.113.113 0 0 0 .032.08l.4.405a.108.108 0 0 0 .151 0 2.993 2.993 0 0 1 2.066-.826 3 3 0 0 1 2.066.826.107.107 0 0 0 .15 0l.4-.405a.113.113 0 0 0 .032-.08.114.114 0 0 0 -.034-.079 3.782 3.782 0 0 0 -5.233 0"/></clipPath><clipPath id="d"><path d="m115.955 17.393a.347.347 0 0 0 -.346.348v.693a.347.347 0 0 0 .346.348h.348a.348.348 0 0 0 .347-.348v-.693a.348.348 0 0 0 -.347-.348zm1.62-.694a.347.347 0 0 0 -.347.348v1.387a.347.347 0 0 0 .347.348h.348a.348.348 0 0 0 .346-.348v-1.387a.348.348 0 0 0 -.346-.348zm1.619-.81a.347.347 0 0 0 -.346.348v2.2a.347.347 0 0 0 .346.348h.348a.347.347 0 0 0 .346-.348v-2.2a.347.347 0 0 0 -.346-.348zm1.62-.809a.347.347 0 0 0 -.347.347v3.008a.347.347 0 0 0 .347.347h.347a.348.348 0 0 0 .347-.347v-3.008a.347.347 0 0 0 -.347-.347z"/></clipPath><clipPath id="e"><path d="m86.449 182.642h62.886v15.638h-62.886z"/></clipPath><clipPath id="f"><path d="m138.282 17.624a.752.752 0 0 0 0-1.387z"/></clipPath><path d="m137.481.5h-120.374a11.854 11.854 0 0 0 -11.853 11.854v252.546a11.853 11.853 0 0 0 11.853 11.853h120.374a11.854 11.854 0 0 0 11.854-11.853v-252.546a11.854 11.854 0 0 0 -11.854-11.854" fill="#2f2d2c" transform="translate(-5.254 -.5)"/><path d="m135.4 269.722h-116.21a7.047 7.047 0 0 1 -7.047-7.047v-248.098a7.047 7.047 0 0 1 7.047-7.047h116.21a7.047 7.047 0 0 1 7.047 7.047v248.1a7.047 7.047 0 0 1 -7.047 7.047" fill="#fff" transform="translate(-5.254 -.5)"/><path d="m68.216 4.005h18.157a1.044 1.044 0 1 1 0 2.089h-18.157a1.044 1.044 0 0 1 0-2.089" fill="#363638" transform="translate(-5.254 -.5)"/><path d="m119.272 217.3h-83.955a3.834 3.834 0 1 0 0 7.668h83.955a3.834 3.834 0 1 0 0-7.668" fill="#e5e5e5" transform="translate(-5.254 6.109)"/><path d="m84.1 217.3h-48.783a3.834 3.834 0 1 0 0 7.668h48.783a3.834 3.834 0 0 0 0-7.668" fill="#2f2d2c" transform="translate(-5.254 6.109)"/><path d="m71.437 212.269.372-3.645h3.743v.859h-2.952l-.222 1.992a2.366 2.366 0 0 1 1.219-.315 2.011 2.011 0 0 1 1.586.659 2.583 2.583 0 0 1 .588 1.784 2.5 2.5 0 0 1 -.61 1.78 2.222 2.222 0 0 1 -1.7.649 2.306 2.306 0 0 1 -1.581-.537 2.142 2.142 0 0 1 -.7-1.485h.878a1.474 1.474 0 0 0 .446.945 1.389 1.389 0 0 0 .954.32 1.254 1.254 0 0 0 1.017-.442 1.851 1.851 0 0 0 .369-1.22 1.7 1.7 0 0 0 -.4-1.177 1.356 1.356 0 0 0 -1.062-.444 1.533 1.533 0 0 0 -.953.266l-.247.2z" fill="#202427" transform="translate(-8.061 -1.648)"/><path d="m79.805 209.146-3.025 6.786h-.974l3.017-6.545h-3.955v-.763h4.938z" fill="#202427" transform="translate(-6.367 -1.648)"/><path d="m78.92 210.062a1.487 1.487 0 0 1 .419-1.084 1.576 1.576 0 0 1 2.159 0 1.535 1.535 0 0 1 .413 1.112v.356a1.464 1.464 0 0 1 -.419 1.083 1.445 1.445 0 0 1 -1.066.419 1.475 1.475 0 0 1 -1.078-.419 1.5 1.5 0 0 1 -.427-1.118zm.693.385a.949.949 0 0 0 .22.646.745.745 0 0 0 .592.254.729.729 0 0 0 .575-.247.976.976 0 0 0 .219-.674v-.368a.975.975 0 0 0 -.216-.648.8.8 0 0 0 -1.174 0 1 1 0 0 0 -.216.668zm1.024 4.966-.528-.331 3.569-5.712.527.331zm1.841-1.24a1.473 1.473 0 0 1 .42-1.081 1.444 1.444 0 0 1 1.075-.425 1.46 1.46 0 0 1 1.079.422 1.511 1.511 0 0 1 .422 1.119v.356a1.478 1.478 0 0 1 -.419 1.083 1.443 1.443 0 0 1 -1.072.423 1.471 1.471 0 0 1 -1.078-.419 1.492 1.492 0 0 1 -.427-1.116zm.693.39a.959.959 0 0 0 .22.652.747.747 0 0 0 .592.254.727.727 0 0 0 .578-.25 1 1 0 0 0 .216-.677v-.372a.953.953 0 0 0 -.219-.649.734.734 0 0 0 -.585-.251.742.742 0 0 0 -.579.249.966.966 0 0 0 -.223.671z" fill="#202427" transform="translate(-4.508 -1.682)"/><path d="m15.879 64.797h112.326v130.304h-112.326z" fill="none" stroke="#1a1a1a"/><path d="m72.832 82.115v13.012h8.924v-13.012h4.462l-8.924-8.291-8.924 8.291z" fill="none" stroke="#2f2d2c" stroke-miterlimit="10" transform="translate(-5.254 -3.5)"/><g clip-path="url(#a)" transform="translate(-5.254 -.5)"><path d="m.926 0h5.784a.925.925 0 0 1 .925.925v2.083a.925.925 0 0 1 -.925.925h-5.784a.926.926 0 0 1 -.926-.926v-2.081a.926.926 0 0 1 .926-.926z" fill="none" stroke="#231f20" stroke-miterlimit="10" stroke-width=".2" transform="translate(130.299 14.964)"/></g><path d="m.926 0h5.784a.925.925 0 0 1 .925.925v2.083a.925.925 0 0 1 -.925.925h-5.784a.926.926 0 0 1 -.926-.926v-2.081a.926.926 0 0 1 .926-.926z" fill="none" stroke="#231f20" stroke-miterlimit="10" stroke-width=".2" transform="translate(125.045 14.464)"/><g clip-path="url(#b)" transform="translate(-5.254 -.5)"><path d="m0 0h9.717v6.015h-9.717z" fill="#2b2f3b" transform="translate(129.259 13.923)"/></g><g clip-path="url(#c)" transform="translate(-5.254 -.5)"><path d="m0 0h8.771v7.277h-8.771z" fill="#2b2f3b" transform="translate(121.518 13.228)"/></g><g clip-path="url(#d)" transform="translate(-5.254 -.5)"><path d="m0 0h9.37v7.172h-9.37z" fill="#2b2f3b" transform="translate(113.873 13.345)"/></g><path d="m23.907 18.4c.871 0 1.388-.681 1.388-1.834a2.2 2.2 0 0 0 -.243-1.082 1.217 1.217 0 0 0 -1.126-.676 1.191 1.191 0 0 0 -1.269 1.107q0 .048 0 .1a1.1 1.1 0 0 0 1.053 1.138h.074a.945.945 0 0 0 .887-.513h.041c0 .783-.3 1.25-.8 1.25a.6.6 0 0 1 -.6-.42h-.612a1.153 1.153 0 0 0 1.2.933m.021-1.735a.649.649 0 0 1 -.674-.62v-.053a.677.677 0 0 1 1.361.005.651.651 0 0 1 -.638.663h-.042zm2.443 1.29a.375.375 0 1 0 -.38-.374.364.364 0 0 0 .354.373h.026zm0-1.779a.361.361 0 0 0 .379-.344v-.028a.38.38 0 0 0 -.759 0 .362.362 0 0 0 .355.371h.024zm2.746 2.141h.59v-.638h.462v-.517h-.462v-2.265h-.864c-.6.911-1.086 1.672-1.4 2.239v.546h1.673zm-1.106-1.177c.4-.7.755-1.264 1.082-1.748h.035v1.784h-1.11zm3.558 1.177h.612v-3.42h-.61l-.894.626v.59l.851-.6h.041z" fill="#2b2f3b" transform="translate(-5.254 -.5)"/><path d="m201.262 92.846.725 10.631 18.859 37.977 6.588-2.532a23.164 23.164 0 0 0 9.9-7.306l3.1-3.941c-.642-3.272-10.644-4.441-12.637-11.591s-7.89-7.957-12.822-10.929-6.706-9.08-6.706-9.08z" fill="#1a1a1a" transform="translate(-5.254 -.5)"/><path d="m177.7 271.717s-1.2 3.9-2.576 5.1c-1.183 1.029 3.759 3.692 6.166 3.841s2.86-1.068 2.86-1.068-.761-2.645.87-8.2z" fill="#fff" transform="translate(-5.254 -.5)"/><path d="m177.7 271.717s-1.2 3.9-2.576 5.1c-1.183 1.029 3.759 3.692 6.166 3.841s2.86-1.068 2.86-1.068-.761-2.645.87-8.2z" fill="none" stroke="#2f2d2c" stroke-miterlimit="10" transform="translate(-5.254 -.5)"/><path d="m237.027 277.549a18.684 18.684 0 0 0 -2.063-6.878c-1.969-3.59 8.6.229 8.6.229s3.123 7.389 3.577 9.11-3.856 2.229-5.842 1.56-4.272-4.021-4.272-4.021" fill="#fff" transform="translate(-5.254 -.5)"/><path d="m237.027 277.549a18.684 18.684 0 0 0 -2.063-6.878c-1.969-3.59 8.6.229 8.6.229s3.123 7.389 3.577 9.11-3.856 2.229-5.842 1.56-4.272-4.021-4.272-4.021z" fill="none" stroke="#2f2d2c" stroke-miterlimit="10" transform="translate(-5.254 -.5)"/><path d="m188.665 177.678s-14.036 36.739-16.129 44.835c-2.309 8.929-2.366 48.24-3.16 52.725-.12.679 24.294-.434 24.775-1.014.554-.67 2.8-42.753 3.99-47.554.7-2.82 9.973-38.209 9.973-38.209s2.542 31.158 5.49 40.315c1.871 5.81 15.338 45.393 15.63 45.78.588.779 21.283-3.133 21.282-4.157 0-2.7-15.584-47.78-15.8-50.04-.582-6.2-8.043-50.857-8.043-50.857l-4.812-4.235-30.889 5.711z" fill="#2f2d2c" transform="translate(-5.254 -.5)"/><path d="m188.665 177.678s-14.036 36.739-16.129 44.835c-2.309 8.929-2.366 48.24-3.16 52.725-.12.679 24.294-.434 24.775-1.014.554-.67 2.8-42.753 3.99-47.554.7-2.82 9.973-38.209 9.973-38.209s2.542 31.158 5.49 40.315c1.871 5.81 15.338 45.393 15.63 45.78.588.779 21.283-3.133 21.282-4.157 0-2.7-15.584-47.78-15.8-50.04-.582-6.2-8.043-50.857-8.043-50.857l-4.812-4.235-30.889 5.711z" fill="none" stroke="#1a1a1a" stroke-miterlimit="10" transform="translate(-5.254 -.5)"/><path d="m235.735 276.216c-.771.121-5.776 4.6-10.9 5.361s-6.026 3.554-5.636 5.381 16.006.108 21.7-.727 7.078-.884 7.158-2.052c.247-3.611-.963-8.218-1.943-8.1s-2.159 3.016-6.149 2.234-2.28-2.406-4.231-2.1" fill="#fff" transform="translate(-5.254 -.5)"/><path d="m235.735 276.216c-.771.121-5.776 4.6-10.9 5.361s-6.026 3.554-5.636 5.381 16.006.108 21.7-.727 7.078-.884 7.158-2.052c.247-3.611-.963-8.218-1.943-8.1s-2.159 3.016-6.149 2.234-2.279-2.404-4.23-2.097z" fill="none" stroke="#2f2d2c" stroke-miterlimit="10" transform="translate(-5.254 -.5)"/><path d="m174.089 276.554c-.78.026-6.294 3.858-11.475 3.991s-6.415 2.791-6.251 4.652 15.873 2.06 21.63 1.928 7.133-.015 7.355-1.164c.686-3.554.047-8.274-.94-8.274s-2.511 2.729-6.376 1.467-1.969-2.666-3.943-2.6" fill="#fff" transform="translate(-5.254 -.5)"/><path d="m174.089 276.554c-.78.026-6.294 3.858-11.475 3.991s-6.415 2.791-6.251 4.652 15.873 2.06 21.63 1.928 7.133-.015 7.355-1.164c.686-3.554.047-8.274-.94-8.274s-2.511 2.729-6.376 1.467-1.969-2.666-3.943-2.6z" fill="none" stroke="#2f2d2c" stroke-miterlimit="10" transform="translate(-5.254 -.5)"/><path d="m222.223 134.93c-.287-9.232-1.816-12.957-6.766-16.629-5.276-3.914-12.019-4.108-15.068-3.762-.268.043-.535.086-.8.131-8.071 1.366-13.911 4.027-20.5 8.2-6.386 4.048-16.212 12.162-17.418 12.644-3.87 1.548-20.13.227-21.89-.129-.707-.143-1.2 8.515-1.2 8.515 3.118 1.3 18.536 6.279 25.072 3.7 11.338-4.476 16-9.248 23.4-11.44 0 0 1.142 6.22 2.365 14.579 1.759 12.021.9 12.9.516 20.643s10.466 6.854 21.483 5.693c10.56-1.113 18.706-1.765 16.938-9.988s-5.959-26.876-6.123-32.16" fill="#fff" transform="translate(-5.254 -.5)"/><path d="m222.223 134.93c-.287-9.232-1.816-12.957-6.766-16.629-5.276-3.914-12.019-4.108-15.068-3.762-.268.043-.535.086-.8.131-8.071 1.366-13.911 4.027-20.5 8.2-6.386 4.048-16.212 12.162-17.418 12.644-3.87 1.548-20.13.227-21.89-.129-.707-.143-1.2 8.515-1.2 8.515 3.118 1.3 18.536 6.279 25.072 3.7 11.338-4.476 16-9.248 23.4-11.44 0 0 1.142 6.22 2.365 14.579 1.759 12.021.9 12.9.516 20.643s10.466 6.854 21.483 5.693c10.56-1.113 18.706-1.765 16.938-9.988s-5.968-26.873-6.132-32.157z" fill="none" stroke="#1a1a1a" stroke-miterlimit="10" transform="translate(-5.254 -.5)"/><path d="m0 0h82.387v120.71h-82.387z" fill="#fff" transform="matrix(.10569136 -.99439898 .99439898 .10569136 40.875 177.856)"/><path d="m-.5-.5h78.339v116.348h-78.339zm77.339 1h-76.339v114.348h76.339z" fill="#2f2d2c" transform="matrix(.10569136 -.99439898 .99439898 .10569136 43.809 175.63)"/><g transform="translate(-5.254 -.5)"><path d="m164.208 188.871-.5-.053-115.2-12.244 2.06-19.386 43.111-33.666 21.983 26.823 32.738-36.992 20.365 32.615zm-114.6-13.185 113.712 12.085 4.418-41.565-19.473-31.187-32.627 36.868-22.109-26.976-42.007 32.8z" fill="#2f2d2c"/><path d="m124.562 123.018a9.073 9.073 0 1 1 -8.063-9.981 9.072 9.072 0 0 1 8.063 9.981z" fill="none" stroke="#2f2d2c" stroke-miterlimit="10"/><path d="m219.146 137.383c-4.413 7.424-13.723 18.887-15.851 20.119-3.269 1.892-32.985 3-33.673 2.66s.306-12.215.306-12.215c.86-.345 24.427-2.581 27.007-3.269 1.163-.31 3.3-4.8 5.8-9.793" fill="#fff"/><path d="m219.146 137.383c-4.413 7.424-13.723 18.887-15.851 20.119-3.269 1.892-32.985 3-33.673 2.66s.306-12.215.306-12.215c.86-.345 24.427-2.581 27.007-3.269 1.163-.31 3.3-4.8 5.8-9.793" fill="none" stroke="#1a1a1a" stroke-miterlimit="10"/><path d="m169.823 149.161a2.746 2.746 0 0 1 -.789-.108 28.114 28.114 0 0 0 -5.136-1.221c-1.734-.1-2.1-.464-2.1-.464s-.317 1.344.855 1.637 1.409.476 1.434.623a3.2 3.2 0 0 1 -2.38.646 5.729 5.729 0 0 1 -3.145-1.123c-.44-.513-1.295-.427-1.441.086s1.031 1.33 1.031 1.33a6.569 6.569 0 0 1 -1.245-.879c-.55-.513-1.063.11-1.063.879s1.539 1.5 1.539 1.5-.87-.513-.971.611c-.085.953 2.186 2.1 2.443 2.174s-.5-.281-.574.452 2.546 1.394 4.818 1.222 3.041-.905 4.4-1.565a4.158 4.158 0 0 1 2.167-.544c-.028-.845-.032-1.743 0-2.687.029-.9.086-1.763.163-2.572" fill="#fff"/><path d="m169.823 149.161a2.746 2.746 0 0 1 -.789-.108 28.114 28.114 0 0 0 -5.136-1.221c-1.734-.1-2.1-.464-2.1-.464s-.317 1.344.855 1.637 1.409.476 1.434.623a3.2 3.2 0 0 1 -2.38.646 5.729 5.729 0 0 1 -3.145-1.123c-.44-.513-1.295-.427-1.441.086s1.031 1.33 1.031 1.33a6.569 6.569 0 0 1 -1.245-.879c-.55-.513-1.063.11-1.063.879s1.539 1.5 1.539 1.5-.87-.513-.971.611c-.085.953 2.186 2.1 2.443 2.174s-.5-.281-.574.452 2.546 1.394 4.818 1.222 3.041-.905 4.4-1.565a4.158 4.158 0 0 1 2.167-.544c-.028-.845-.032-1.743 0-2.687.023-.901.08-1.76.157-2.569z" fill="none" stroke="#2f2d2c" stroke-linecap="round" stroke-linejoin="round"/><path d="m86.449 185.3h-50.749v-91.348h50.749c-1.332 13-2.217 27.25-2.323 42.576a448.26 448.26 0 0 0 2.323 48.772" fill="#fff"/><g clip-path="url(#e)" opacity=".11"><path d="m86.449 182.642 62.886 6.684v8.954z" fill="#333"/></g><path d="m198.648 91.148c10.592-.212 10.986 9.852 10.986 9.852z" fill="#1a1a1a"/><path d="m198.648 91.148c10.592-.212 10.986 9.852 10.986 9.852z" fill="none" stroke="#1a1a1a" stroke-miterlimit="10" stroke-width=".641"/><path d="m190.834 102.5c-.023-.133-.042-.266-.059-.4a8.3 8.3 0 0 1 7.332-9.234 8.6 8.6 0 0 1 9.341 7.154l.319 1.864.363 2.1 2.384 14.518c.013.075.026.151.037.227a6.83 6.83 0 0 1 -5.854 7.747 6.956 6.956 0 0 1 -7.846-5.845l-1.332-8.168a8.384 8.384 0 0 1 -3.964-5.766z" fill="#fff"/><path d="m190.775 102.1a8.294 8.294 0 0 1 7.331-9.234 8.6 8.6 0 0 1 9.342 7.153l.319 1.864.363 2.1 1.718 11.066c.013.075.026.151.037.227a6.83 6.83 0 0 1 -5.854 7.747 6.955 6.955 0 0 1 -7.846-5.845l-.666-4.716a8.384 8.384 0 0 1 -3.964-5.766l-.721-4.2c-.023-.13-.043-.263-.059-.396z" fill="none" stroke="#1a1a1a" stroke-miterlimit="10"/><path d="m196.284 92.517s.477 10.1-4.188 9.517-2.507-7.627-.372-9.034a5.41 5.41 0 0 1 4.557-.481" fill="#1a1a1a"/><path d="m192.1 102.034c-4.665-.586-2.507-7.628-.372-9.034a5.41 5.41 0 0 1 4.557-.481s.476 10.101-4.185 9.515z" fill="none" stroke="#1a1a1a" stroke-miterlimit="10" stroke-width=".641"/><path d="m204.292 112.442a8.462 8.462 0 0 1 -12.733-5.742l-.726-4.2" fill="none" stroke="#1a1a1a" stroke-miterlimit="10"/><path d="m207.2 99.28c-1.716-9.307-8.553-8.132-8.553-8.132-5.818.953-5.793 4.4-5.793 4.4s2.041-1.638 3.979 2.663 9.077 1.815 9.077 1.815z" fill="#1a1a1a"/><path d="m207.2 99.28c-1.716-9.307-8.553-8.132-8.553-8.132-5.818.953-5.793 4.4-5.793 4.4s2.041-1.638 3.979 2.663 9.077 1.815 9.077 1.815z" fill="none" stroke="#1a1a1a" stroke-miterlimit="10" stroke-width=".641"/><path d="m205.5 100.852a2.086 2.086 0 0 1 1.7-1.569 2.118 2.118 0 0 1 2.433 1.723 2.08 2.08 0 0 1 -1.725 2.4 2.123 2.123 0 0 1 -.84-.033" fill="#fff"/><path d="m205.5 100.852a2.086 2.086 0 0 1 1.7-1.569 2.118 2.118 0 0 1 2.433 1.723 2.08 2.08 0 0 1 -1.725 2.4 2.123 2.123 0 0 1 -.84-.033" fill="none" stroke="#1a1a1a" stroke-miterlimit="10" stroke-width=".641"/><path d="m196.8 107.565-1.238-.211 1.153-3.155z"/><path d="m195.354 103.727c.056-.508-.182-.952-.54-1s-.7.331-.757.838.182.953.54 1 .7-.336.757-.839"/><path d="m200.664 104.431c.056-.508-.183-.95-.54-1s-.7.332-.757.839.18.951.538.995.7-.33.757-.839"/><path d="m200.031 109.027a2.674 2.674 0 0 1 -3.331.154" fill="none" stroke="#000" stroke-linecap="round" stroke-linejoin="round" stroke-width=".8"/><path d="m201.542 103.377-.013-.037a1.715 1.715 0 0 0 -2.19-1" fill="none" stroke="#000" stroke-linecap="round" stroke-linejoin="round" stroke-width=".8"/><path d="m195.4 101.884a1.468 1.468 0 0 0 -1.714-.144" fill="none" stroke="#000" stroke-linecap="round" stroke-linejoin="round" stroke-width=".8"/></g><path d="m-19860.781 6898.316s-6 39.915 0 77.893" fill="none" stroke="#2f2d2c" transform="translate(19941.746 -6796.5)"/><g clip-path="url(#f)" transform="translate(-5.254 -.5)"><path d="m0 0h3.931v4.859h-3.931z" transform="translate(136.547 14.501)"/></g></svg>